<ttFont>
<head>
    <!-- Most of this table will be recalculated by the compiler -->
    <tableVersion value="1.0"/>
    <fontRevision value="2.7"/>
    <checkSumAdjustment value="0x7b00ff43"/>
    <magicNumber value="0x5f0f3cf5"/>
    <flags value="00000000 00000001"/>
    <unitsPerEm value="1024"/>
    <created value="Thu Jan  1 00:00:00 1970"/>
    <modified value="Thu Jan  1 00:00:00 1970"/>
    <xMin value="0"/>
    <yMin value="-144"/>
    <xMax value="1111"/>
    <yMax value="880"/>
    <macStyle value="00000000 00000000"/>
    <lowestRecPPEM value="7"/>
    <fontDirectionHint value="1"/>
    <indexToLocFormat value="1"/>
    <glyphDataFormat value="0"/>
  </head>
    <TTGlyph name=".notdef" xMin="206" yMin="400" xMax="306" yMax="500">
      <contour>
        <pt x="206" y="400" on="1"/>
        <pt x="206" y="500" on="1"/>
        <pt x="306" y="500" on="1"/>
        <pt x="306" y="400" on="1"/>
      </contour>
    </TTGlyph>
    <TTGlyph name="A" xMin="40" yMin="0" xMax="754" yMax="680">
      <contour>
        <pt x="580" y="191" on="1"/>
        <pt x="213" y="191" on="1"/>
        <pt x="119" y="0" on="1"/>
        <pt x="40" y="0" on="1"/>
        <pt x="360" y="680" on="1"/>
        <pt x="436" y="680" on="1"/>
        <pt x="754" y="0" on="1"/>
        <pt x="665" y="0" on="1"/>
      </contour>
      <contour>
        <pt x="551" y="256" on="1"/>
        <pt x="397" y="594" on="1"/>
        <pt x="243" y="256" on="1"/>
      </contour>
    </TTGlyph>
    <TTGlyph name="B" xMin="40" yMin="0" xMax="676" yMax="681">
      <contour>
        <pt x="557" y="353" on="1"/>
        <pt x="676" y="313" on="0"/>
        <pt x="676" y="189" on="1"/>
        <pt x="676" y="128" on="0"/>
        <pt x="644" y="82" on="1"/>
        <pt x="612" y="37" on="0"/>
        <pt x="505" y="0" on="0"/>
        <pt x="406" y="0" on="1"/>
        <pt x="40" y="0" on="1"/>
        <pt x="40" y="680" on="1"/>
        <pt x="416" y="680" on="1"/>
        <pt x="476" y="681" on="0"/>
        <pt x="554" y="662" on="0"/>
        <pt x="584" y="640" on="1"/>
        <pt x="653" y="590" on="0"/>
        <pt x="653" y="498" on="1"/>
        <pt x="653" y="400" on="0"/>
      </contour>
      <contour>
        <pt x="120" y="387" on="1"/>
        <pt x="382" y="387" on="1"/>
        <pt x="438" y="387" on="0"/>
        <pt x="494" y="394" on="0"/>
        <pt x="517" y="403" on="1"/>
        <pt x="546" y="415" on="0"/>
        <pt x="578" y="465" on="0"/>
        <pt x="578" y="498" on="1"/>
        <pt x="578" y="542" on="0"/>
        <pt x="550" y="573" on="1"/>
        <pt x="527" y="597" on="0"/>
        <pt x="453" y="616" on="0"/>
        <pt x="377" y="615" on="1"/>
        <pt x="120" y="615" on="1"/>
      </contour>
      <contour>
        <pt x="120" y="64" on="1"/>
        <pt x="393" y="64" on="1"/>
        <pt x="452" y="64" on="0"/>
        <pt x="509" y="72" on="0"/>
        <pt x="534" y="83" on="1"/>
        <pt x="564" y="97" on="0"/>
        <pt x="597" y="153" on="0"/>
        <pt x="597" y="190" on="1"/>
        <pt x="597" y="238" on="0"/>
        <pt x="568" y="273" on="1"/>
        <pt x="543" y="301" on="0"/>
        <pt x="467" y="322" on="0"/>
        <pt x="388" y="322" on="1"/>
        <pt x="120" y="322" on="1"/>
      </contour>
    </TTGlyph>
    <TTGlyph name="C" xMin="40" yMin="-10" xMax="774" yMax="695">
      <contour>
        <pt x="760" y="598" on="1"/>
        <pt x="720" y="531" on="1"/>
        <pt x="691" y="551" on="0"/>
        <pt x="627" y="582" on="1"/>
        <pt x="540" y="624" on="0"/>
        <pt x="435" y="624" on="1"/>
        <pt x="295" y="624" on="0"/>
        <pt x="208" y="547" on="1"/>
        <pt x="120" y="469" on="0"/>
        <pt x="120" y="343" on="1"/>
        <pt x="120" y="218" on="0"/>
        <pt x="211" y="136" on="1"/>
        <pt x="301" y="56" on="0"/>
        <pt x="432" y="56" on="1"/>
        <pt x="552" y="68" on="0"/>
        <pt x="657" y="129" on="0"/>
        <pt x="720" y="188" on="1"/>
        <pt x="774" y="127" on="1"/>
        <pt x="739" y="95" on="1"/>
        <pt x="692" y="60" on="0"/>
        <pt x="631" y="25" on="0"/>
        <pt x="597" y="14" on="1"/>
        <pt x="521" y="-10" on="0"/>
        <pt x="432" y="-10" on="1"/>
        <pt x="259" y="-10" on="0"/>
        <pt x="151" y="84" on="1"/>
        <pt x="40" y="184" on="0"/>
        <pt x="40" y="340" on="1"/>
        <pt x="40" y="463" on="0"/>
        <pt x="109" y="552" on="1"/>
        <pt x="219" y="695" on="0"/>
        <pt x="441" y="695" on="1"/>
        <pt x="583" y="690" on="0"/>
        <pt x="713" y="626" on="0"/>
      </contour>
    </TTGlyph>
    <TTGlyph name="D" xMin="40" yMin="0" xMax="718" yMax="680">
      <contour>
        <pt x="40" y="680" on="1"/>
        <pt x="369" y="680" on="1"/>
        <pt x="491" y="680" on="0"/>
        <pt x="555" y="646" on="1"/>
        <pt x="637" y="603" on="0"/>
        <pt x="680" y="515" on="1"/>
        <pt x="718" y="438" on="0"/>
        <pt x="718" y="340" on="1"/>
        <pt x="718" y="224" on="0"/>
        <pt x="667" y="139" on="1"/>
        <pt x="622" y="65" on="0"/>
        <pt x="483" y="0" on="0"/>
        <pt x="369" y="0" on="1"/>
        <pt x="40" y="0" on="1"/>
      </contour>
      <contour>
        <pt x="120" y="64" on="1"/>
        <pt x="366" y="64" on="1"/>
        <pt x="474" y="64" on="0"/>
        <pt x="526" y="98" on="1"/>
        <pt x="588" y="137" on="0"/>
        <pt x="617" y="220" on="1"/>
        <pt x="636" y="274" on="0"/>
        <pt x="636" y="340" on="1"/>
        <pt x="636" y="458" on="0"/>
        <pt x="575" y="536" on="1"/>
        <pt x="542" y="579" on="0"/>
        <pt x="446" y="615" on="0"/>
        <pt x="366" y="615" on="1"/>
        <pt x="120" y="615" on="1"/>
      </contour>
    </TTGlyph>
    <TTGlyph name="E" xMin="40" yMin="-1" xMax="616" yMax="680">
      <contour>
        <pt x="120" y="315" on="1"/>
        <pt x="120" y="62" on="1"/>
        <pt x="616" y="62" on="1"/>
        <pt x="616" y="0" on="1"/>
        <pt x="40" y="-1" on="1"/>
        <pt x="40" y="680" on="1"/>
        <pt x="609" y="680" on="1"/>
        <pt x="609" y="615" on="1"/>
        <pt x="120" y="615" on="1"/>
        <pt x="120" y="380" on="1"/>
        <pt x="461" y="380" on="1"/>
        <pt x="460" y="315" on="1"/>
      </contour>
    </TTGlyph>
    <TTGlyph name="F" xMin="40" yMin="0" xMax="622" yMax="680">
      <contour>
        <pt x="118" y="615" on="1"/>
        <pt x="118" y="383" on="1"/>
        <pt x="472" y="383" on="1"/>
        <pt x="472" y="318" on="1"/>
        <pt x="118" y="318" on="1"/>
        <pt x="118" y="0" on="1"/>
        <pt x="40" y="0" on="1"/>
        <pt x="40" y="680" on="1"/>
        <pt x="622" y="680" on="1"/>
        <pt x="622" y="615" on="1"/>
      </contour>
    </TTGlyph>
    <TTGlyph name="G" xMin="40" yMin="-13" xMax="762" yMax="694">
      <contour>
        <pt x="762" y="588" on="1"/>
        <pt x="715" y="521" on="1"/>
        <pt x="643" y="568" on="1"/>
        <pt x="540" y="623" on="0"/>
        <pt x="430" y="623" on="1"/>
        <pt x="306" y="623" on="0"/>
        <pt x="218" y="552" on="1"/>
        <pt x="120" y="473" on="0"/>
        <pt x="120" y="336" on="1"/>
        <pt x="120" y="204" on="0"/>
        <pt x="214" y="126" on="1"/>
        <pt x="302" y="54" on="0"/>
        <pt x="435" y="54" on="1"/>
        <pt x="507" y="54" on="0"/>
        <pt x="636" y="98" on="0"/>
        <pt x="680" y="138" on="1"/>
        <pt x="680" y="264" on="1"/>
        <pt x="458" y="264" on="1"/>
        <pt x="458" y="328" on="1"/>
        <pt x="757" y="328" on="1"/>
        <pt x="756" y="101" on="1"/>
        <pt x="731" y="74" on="0"/>
        <pt x="681" y="45" on="1"/>
        <pt x="573" y="-13" on="0"/>
        <pt x="432" y="-13" on="1"/>
        <pt x="260" y="-13" on="0"/>
        <pt x="155" y="77" on="1"/>
        <pt x="103" y="123" on="0"/>
        <pt x="72" y="186" on="1"/>
        <pt x="40" y="259" on="0"/>
        <pt x="40" y="339" on="1"/>
        <pt x="40" y="456" on="0"/>
        <pt x="106" y="545" on="1"/>
        <pt x="168" y="626" on="0"/>
        <pt x="273" y="664" on="1"/>
        <pt x="350" y="694" on="0"/>
        <pt x="434" y="694" on="1"/>
        <pt x="510" y="694" on="0"/>
        <pt x="638" y="656" on="0"/>
        <pt x="713" y="613" on="1"/>
      </contour>
    </TTGlyph>
    <TTGlyph name="H" xMin="40" yMin="0" xMax="662" yMax="680">
      <contour>
        <pt x="587" y="316" on="1"/>
        <pt x="119" y="316" on="1"/>
        <pt x="118" y="0" on="1"/>
        <pt x="40" y="0" on="1"/>
        <pt x="40" y="680" on="1"/>
        <pt x="119" y="680" on="1"/>
        <pt x="119" y="381" on="1"/>
        <pt x="587" y="381" on="1"/>
        <pt x="587" y="680" on="1"/>
        <pt x="662" y="680" on="1"/>
        <pt x="662" y="0" on="1"/>
        <pt x="586" y="0" on="1"/>
      </contour>
    </TTGlyph>
    <TTGlyph name="I" xMin="40" yMin="0" xMax="119" yMax="680">
      <contour>
        <pt x="40" y="0" on="1"/>
        <pt x="40" y="680" on="1"/>
        <pt x="119" y="680" on="1"/>
        <pt x="119" y="0" on="1"/>
      </contour>
    </TTGlyph>
    <TTGlyph name="J" xMin="40" yMin="-13" xMax="528" yMax="680">
      <contour>
        <pt x="70" y="125" on="1"/>
        <pt x="91" y="106" on="0"/>
        <pt x="132" y="91" on="1"/>
        <pt x="206" y="53" on="0"/>
        <pt x="287" y="53" on="1"/>
        <pt x="346" y="53" on="0"/>
        <pt x="429" y="99" on="0"/>
        <pt x="439" y="138" on="1"/>
        <pt x="447" y="162" on="0"/>
        <pt x="447" y="250" on="1"/>
        <pt x="447" y="680" on="1"/>
        <pt x="528" y="680" on="1"/>
        <pt x="528" y="231" on="1"/>
        <pt x="528" y="167" on="0"/>
        <pt x="516" y="113" on="0"/>
        <pt x="502" y="88" on="1"/>
        <pt x="475" y="36" on="0"/>
        <pt x="411" y="10" on="1"/>
        <pt x="356" y="-13" on="0"/>
        <pt x="287" y="-13" on="1"/>
        <pt x="233" y="-13" on="0"/>
        <pt x="159" y="4" on="0"/>
        <pt x="87" y="32" on="1"/>
        <pt x="71" y="39" on="0"/>
        <pt x="40" y="61" on="1"/>
      </contour>
    </TTGlyph>
    <TTGlyph name="K" xMin="40" yMin="0" xMax="668" yMax="680">
      <contour>
        <pt x="120" y="261" on="1"/>
        <pt x="120" y="0" on="1"/>
        <pt x="40" y="0" on="1"/>
        <pt x="40" y="680" on="1"/>
        <pt x="120" y="680" on="1"/>
        <pt x="120" y="338" on="1"/>
        <pt x="557" y="680" on="1"/>
        <pt x="661" y="680" on="1"/>
        <pt x="332" y="424" on="1"/>
        <pt x="668" y="0" on="1"/>
        <pt x="570" y="0" on="1"/>
        <pt x="273" y="379" on="1"/>
      </contour>
    </TTGlyph>
    <TTGlyph name="L" xMin="40" yMin="0" xMax="614" yMax="680">
      <contour>
        <pt x="119" y="65" on="1"/>
        <pt x="614" y="64" on="1"/>
        <pt x="614" y="0" on="1"/>
        <pt x="40" y="0" on="1"/>
        <pt x="40" y="680" on="1"/>
        <pt x="119" y="680" on="1"/>
      </contour>
    </TTGlyph>
    <TTGlyph name="M" xMin="40" yMin="0" xMax="768" yMax="680">
      <contour>
        <pt x="397" y="0" on="1"/>
        <pt x="111" y="572" on="1"/>
        <pt x="111" y="0" on="1"/>
        <pt x="40" y="0" on="1"/>
        <pt x="40" y="680" on="1"/>
        <pt x="142" y="680" on="1"/>
        <pt x="404" y="155" on="1"/>
        <pt x="666" y="680" on="1"/>
        <pt x="768" y="680" on="1"/>
        <pt x="768" y="0" on="1"/>
        <pt x="686" y="0" on="1"/>
        <pt x="686" y="572" on="1"/>
      </contour>
    </TTGlyph>
    <TTGlyph name="N" xMin="40" yMin="0" xMax="686" yMax="680">
      <contour>
        <pt x="111" y="595" on="1"/>
        <pt x="111" y="0" on="1"/>
        <pt x="40" y="0" on="1"/>
        <pt x="40" y="680" on="1"/>
        <pt x="140" y="680" on="1"/>
        <pt x="615" y="124" on="1"/>
        <pt x="615" y="680" on="1"/>
        <pt x="686" y="680" on="1"/>
        <pt x="686" y="0" on="1"/>
        <pt x="622" y="0" on="1"/>
      </contour>
    </TTGlyph>
    <TTGlyph name="O" xMin="40" yMin="0" xMax="826" yMax="680">
      <contour>
        <pt x="431" y="680" on="1"/>
        <pt x="604" y="680" on="0"/>
        <pt x="711" y="588" on="1"/>
        <pt x="770" y="538" on="0"/>
        <pt x="800" y="464" on="1"/>
        <pt x="826" y="404" on="0"/>
        <pt x="826" y="335" on="1"/>
        <pt x="826" y="241" on="0"/>
        <pt x="771" y="159" on="1"/>
        <pt x="712" y="69" on="0"/>
        <pt x="608" y="28" on="1"/>
        <pt x="531" y="0" on="0"/>
        <pt x="432" y="0" on="1"/>
        <pt x="259" y="0" on="0"/>
        <pt x="153" y="90" on="1"/>
        <pt x="94" y="141" on="0"/>
        <pt x="64" y="214" on="1"/>
        <pt x="40" y="273" on="0"/>
        <pt x="40" y="340" on="1"/>
        <pt x="40" y="437" on="0"/>
        <pt x="92" y="519" on="1"/>
        <pt x="150" y="608" on="0"/>
        <pt x="256" y="650" on="1"/>
        <pt x="330" y="678" on="0"/>
      </contour>
      <contour>
        <pt x="431" y="613" on="1"/>
        <pt x="283" y="613" on="0"/>
        <pt x="197" y="531" on="1"/>
        <pt x="118" y="454" on="0"/>
        <pt x="118" y="340" on="1"/>
        <pt x="118" y="224" on="0"/>
        <pt x="197" y="147" on="1"/>
        <pt x="282" y="65" on="0"/>
        <pt x="432" y="65" on="1"/>
        <pt x="582" y="65" on="0"/>
        <pt x="668" y="147" on="1"/>
        <pt x="746" y="224" on="0"/>
        <pt x="746" y="336" on="1"/>
        <pt x="746" y="456" on="0"/>
        <pt x="668" y="531" on="1"/>
        <pt x="621" y="574" on="0"/>
        <pt x="566" y="593" on="1"/>
        <pt x="506" y="613" on="0"/>
      </contour>
    </TTGlyph>
    <TTGlyph name="P" xMin="40" yMin="0" xMax="638" yMax="680">
      <contour>
        <pt x="119" y="305" on="1"/>
        <pt x="118" y="0" on="1"/>
        <pt x="40" y="0" on="1"/>
        <pt x="40" y="680" on="1"/>
        <pt x="367" y="680" on="1"/>
        <pt x="442" y="680" on="0"/>
        <pt x="526" y="664" on="0"/>
        <pt x="559" y="643" on="1"/>
        <pt x="593" y="622" on="0"/>
        <pt x="614" y="585" on="1"/>
        <pt x="638" y="544" on="0"/>
        <pt x="638" y="494" on="1"/>
        <pt x="638" y="424" on="0"/>
        <pt x="595" y="374" on="1"/>
        <pt x="562" y="336" on="0"/>
        <pt x="460" y="305" on="0"/>
        <pt x="367" y="305" on="1"/>
      </contour>
      <contour>
        <pt x="119" y="370" on="1"/>
        <pt x="374" y="370" on="1"/>
        <pt x="431" y="370" on="0"/>
        <pt x="486" y="379" on="0"/>
        <pt x="508" y="392" on="1"/>
        <pt x="559" y="422" on="0"/>
        <pt x="559" y="492" on="1"/>
        <pt x="559" y="563" on="0"/>
        <pt x="508" y="593" on="1"/>
        <pt x="486" y="606" on="0"/>
        <pt x="432" y="615" on="0"/>
        <pt x="374" y="615" on="1"/>
        <pt x="119" y="615" on="1"/>
      </contour>
    </TTGlyph>
    <TTGlyph name="Q" xMin="40" yMin="-86" xMax="856" yMax="694">
      <contour>
        <pt x="623" y="16" on="1"/>
        <pt x="540" y="-12" on="0"/>
        <pt x="447" y="-12" on="1"/>
        <pt x="269" y="-12" on="0"/>
        <pt x="158" y="82" on="1"/>
        <pt x="96" y="135" on="0"/>
        <pt x="65" y="211" on="1"/>
        <pt x="40" y="273" on="0"/>
        <pt x="40" y="341" on="1"/>
        <pt x="40" y="443" on="0"/>
        <pt x="95" y="528" on="1"/>
        <pt x="157" y="622" on="0"/>
        <pt x="265" y="663" on="1"/>
        <pt x="346" y="694" on="0"/>
        <pt x="448" y="694" on="1"/>
        <pt x="628" y="694" on="0"/>
        <pt x="738" y="600" on="1"/>
        <pt x="800" y="547" on="0"/>
        <pt x="831" y="471" on="1"/>
        <pt x="856" y="409" on="0"/>
        <pt x="856" y="341" on="1"/>
        <pt x="856" y="251" on="0"/>
        <pt x="770" y="97" on="0"/>
        <pt x="693" y="50" on="1"/>
        <pt x="798" y="-28" on="1"/>
        <pt x="752" y="-86" on="1"/>
      </contour>
      <contour>
        <pt x="556" y="68" on="1"/>
        <pt x="473" y="132" on="1"/>
        <pt x="519" y="187" on="1"/>
        <pt x="633" y="98" on="1"/>
        <pt x="774" y="180" on="0"/>
        <pt x="774" y="341" on="1"/>
        <pt x="774" y="461" on="0"/>
        <pt x="693" y="540" on="1"/>
        <pt x="603" y="626" on="0"/>
        <pt x="448" y="626" on="1"/>
        <pt x="293" y="626" on="0"/>
        <pt x="204" y="540" on="1"/>
        <pt x="122" y="461" on="0"/>
        <pt x="122" y="341" on="1"/>
        <pt x="122" y="221" on="0"/>
        <pt x="204" y="142" on="1"/>
        <pt x="293" y="56" on="0"/>
        <pt x="445" y="56" on="1"/>
        <pt x="500" y="56" on="0"/>
      </contour>
    </TTGlyph>
    <TTGlyph name="R" xMin="40" yMin="0" xMax="664" yMax="680">
      <contour>
        <pt x="119" y="306" on="1"/>
        <pt x="119" y="0" on="1"/>
        <pt x="40" y="0" on="1"/>
        <pt x="40" y="680" on="1"/>
        <pt x="382" y="680" on="1"/>
        <pt x="459" y="680" on="0"/>
        <pt x="548" y="663" on="0"/>
        <pt x="581" y="643" on="1"/>
        <pt x="615" y="622" on="0"/>
        <pt x="636" y="585" on="1"/>
        <pt x="660" y="544" on="0"/>
        <pt x="660" y="492" on="1"/>
        <pt x="660" y="414" on="0"/>
        <pt x="556" y="316" on="0"/>
        <pt x="466" y="309" on="1"/>
        <pt x="664" y="0" on="1"/>
        <pt x="572" y="0" on="1"/>
        <pt x="379" y="306" on="1"/>
      </contour>
      <contour>
        <pt x="119" y="370" on="1"/>
        <pt x="394" y="370" on="1"/>
        <pt x="451" y="370" on="0"/>
        <pt x="508" y="380" on="0"/>
        <pt x="530" y="392" on="1"/>
        <pt x="581" y="422" on="0"/>
        <pt x="581" y="492" on="1"/>
        <pt x="581" y="563" on="0"/>
        <pt x="528" y="593" on="1"/>
        <pt x="505" y="606" on="0"/>
        <pt x="448" y="615" on="0"/>
        <pt x="387" y="615" on="1"/>
        <pt x="119" y="615" on="1"/>
      </contour>
    </TTGlyph>
    <TTGlyph name="S" xMin="40" yMin="-12" xMax="707" yMax="694">
      <contour>
        <pt x="642" y="541" on="1"/>
        <pt x="619" y="560" on="0"/>
        <pt x="582" y="578" on="1"/>
        <pt x="482" y="624" on="0"/>
        <pt x="370" y="624" on="1"/>
        <pt x="277" y="624" on="0"/>
        <pt x="210" y="590" on="1"/>
        <pt x="177" y="573" on="0"/>
        <pt x="138" y="519" on="0"/>
        <pt x="138" y="490" on="1"/>
        <pt x="138" y="464" on="0"/>
        <pt x="169" y="420" on="0"/>
        <pt x="193" y="409" on="1"/>
        <pt x="220" y="396" on="0"/>
        <pt x="293" y="388" on="0"/>
        <pt x="375" y="385" on="1"/>
        <pt x="490" y="381" on="0"/>
        <pt x="589" y="367" on="0"/>
        <pt x="620" y="348" on="1"/>
        <pt x="707" y="300" on="0"/>
        <pt x="707" y="204" on="1"/>
        <pt x="707" y="112" on="0"/>
        <pt x="628" y="53" on="1"/>
        <pt x="543" y="-12" on="0"/>
        <pt x="394" y="-12" on="1"/>
        <pt x="308" y="-12" on="0"/>
        <pt x="180" y="22" on="0"/>
        <pt x="90" y="69" on="1"/>
        <pt x="40" y="102" on="1"/>
        <pt x="83" y="168" on="1"/>
        <pt x="103" y="145" on="0"/>
        <pt x="167" y="112" on="1"/>
        <pt x="225" y="82" on="0"/>
        <pt x="330" y="55" on="0"/>
        <pt x="392" y="55" on="1"/>
        <pt x="518" y="55" on="0"/>
        <pt x="583" y="111" on="1"/>
        <pt x="627" y="147" on="0"/>
        <pt x="627" y="198" on="1"/>
        <pt x="627" y="265" on="0"/>
        <pt x="553" y="290" on="1"/>
        <pt x="529" y="299" on="0"/>
        <pt x="477" y="303" on="0"/>
        <pt x="358" y="308" on="1"/>
        <pt x="272" y="311" on="0"/>
        <pt x="175" y="331" on="0"/>
        <pt x="137" y="352" on="1"/>
        <pt x="102" y="373" on="0"/>
        <pt x="60" y="444" on="0"/>
        <pt x="60" y="487" on="1"/>
        <pt x="60" y="559" on="0"/>
        <pt x="114" y="611" on="1"/>
        <pt x="154" y="648" on="0"/>
        <pt x="294" y="694" on="0"/>
        <pt x="378" y="694" on="1"/>
        <pt x="446" y="694" on="0"/>
        <pt x="563" y="665" on="0"/>
        <pt x="637" y="633" on="1"/>
        <pt x="654" y="625" on="0"/>
        <pt x="680" y="599" on="1"/>
      </contour>
    </TTGlyph>
    <TTGlyph name="T" xMin="40" yMin="0" xMax="698" yMax="680">
      <contour>
        <pt x="408" y="615" on="1"/>
        <pt x="408" y="0" on="1"/>
        <pt x="328" y="0" on="1"/>
        <pt x="328" y="615" on="1"/>
        <pt x="40" y="615" on="1"/>
        <pt x="40" y="680" on="1"/>
        <pt x="698" y="680" on="1"/>
        <pt x="698" y="615" on="1"/>
      </contour>
    </TTGlyph>
    <TTGlyph name="U" xMin="40" yMin="-12" xMax="659" yMax="680">
      <contour>
        <pt x="119" y="680" on="1"/>
        <pt x="119" y="245" on="1"/>
        <pt x="119" y="179" on="0"/>
        <pt x="133" y="124" on="0"/>
        <pt x="155" y="104" on="1"/>
        <pt x="208" y="56" on="0"/>
        <pt x="353" y="56" on="1"/>
        <pt x="510" y="56" on="0"/>
        <pt x="560" y="113" on="1"/>
        <pt x="576" y="132" on="0"/>
        <pt x="587" y="184" on="0"/>
        <pt x="587" y="245" on="1"/>
        <pt x="587" y="680" on="1"/>
        <pt x="659" y="680" on="1"/>
        <pt x="659" y="229" on="1"/>
        <pt x="659" y="157" on="0"/>
        <pt x="645" y="119" on="1"/>
        <pt x="619" y="51" on="0"/>
        <pt x="476" y="-12" on="0"/>
        <pt x="350" y="-12" on="1"/>
        <pt x="161" y="-12" on="0"/>
        <pt x="91" y="61" on="1"/>
        <pt x="62" y="90" on="0"/>
        <pt x="40" y="166" on="0"/>
        <pt x="40" y="229" on="1"/>
        <pt x="40" y="680" on="1"/>
      </contour>
    </TTGlyph>
    <TTGlyph name="V" xMin="40" yMin="0" xMax="723" yMax="680">
      <contour>
        <pt x="384" y="86" on="1"/>
        <pt x="642" y="680" on="1"/>
        <pt x="723" y="680" on="1"/>
        <pt x="422" y="0" on="1"/>
        <pt x="338" y="0" on="1"/>
        <pt x="40" y="680" on="1"/>
        <pt x="127" y="680" on="1"/>
      </contour>
    </TTGlyph>
    <TTGlyph name="W" xMin="40" yMin="0" xMax="1071" yMax="680">
      <contour>
        <pt x="559" y="577" on="1"/>
        <pt x="358" y="0" on="1"/>
        <pt x="284" y="0" on="1"/>
        <pt x="40" y="680" on="1"/>
        <pt x="125" y="680" on="1"/>
        <pt x="325" y="111" on="1"/>
        <pt x="523" y="680" on="1"/>
        <pt x="606" y="680" on="1"/>
        <pt x="803" y="111" on="1"/>
        <pt x="995" y="680" on="1"/>
        <pt x="1071" y="680" on="1"/>
        <pt x="834" y="0" on="1"/>
        <pt x="764" y="0" on="1"/>
      </contour>
    </TTGlyph>
    <TTGlyph name="X" xMin="40" yMin="0" xMax="692" yMax="680">
      <contour>
        <pt x="407" y="365" on="1"/>
        <pt x="692" y="0" on="1"/>
        <pt x="594" y="0" on="1"/>
        <pt x="359" y="302" on="1"/>
        <pt x="127" y="0" on="1"/>
        <pt x="40" y="0" on="1"/>
        <pt x="316" y="357" on="1"/>
        <pt x="65" y="680" on="1"/>
        <pt x="161" y="680" on="1"/>
        <pt x="365" y="420" on="1"/>
        <pt x="566" y="680" on="1"/>
        <pt x="651" y="680" on="1"/>
      </contour>
    </TTGlyph>
    <TTGlyph name="Y" xMin="40" yMin="0" xMax="683" yMax="680">
      <contour>
        <pt x="409" y="301" on="1"/>
        <pt x="409" y="0" on="1"/>
        <pt x="330" y="0" on="1"/>
        <pt x="330" y="301" on="1"/>
        <pt x="40" y="680" on="1"/>
        <pt x="138" y="680" on="1"/>
        <pt x="372" y="362" on="1"/>
        <pt x="599" y="680" on="1"/>
        <pt x="683" y="680" on="1"/>
      </contour>
    </TTGlyph>
    <TTGlyph name="Z" xMin="40" yMin="0" xMax="645" yMax="680">
      <contour>
        <pt x="641" y="680" on="1"/>
        <pt x="641" y="666" on="1"/>
        <pt x="173" y="64" on="1"/>
        <pt x="645" y="64" on="1"/>
        <pt x="645" y="0" on="1"/>
        <pt x="40" y="0" on="1"/>
        <pt x="40" y="14" on="1"/>
        <pt x="508" y="615" on="1"/>
        <pt x="45" y="615" on="1"/>
        <pt x="45" y="680" on="1"/>
      </contour>
    </TTGlyph>
    <TTGlyph name="a" xMin="40" yMin="0" xMax="626" yMax="560">
      <contour>
        <pt x="473" y="157" on="1"/>
        <pt x="180" y="157" on="1"/>
        <pt x="108" y="0" on="1"/>
        <pt x="40" y="0" on="1"/>
        <pt x="298" y="560" on="1"/>
        <pt x="368" y="560" on="1"/>
        <pt x="626" y="0" on="1"/>
        <pt x="545" y="0" on="1"/>
      </contour>
      <contour>
        <pt x="450" y="212" on="1"/>
        <pt x="328" y="485" on="1"/>
        <pt x="204" y="212" on="1"/>
      </contour>
    </TTGlyph>
    <TTGlyph name="ampersand" xMin="40" yMin="-10" xMax="726" yMax="694">
      <contour>
        <pt x="726" y="441" on="1"/>
        <pt x="726" y="356" on="1"/>
        <pt x="680" y="343" on="0"/>
        <pt x="644" y="301" on="1"/>
        <pt x="618" y="270" on="0"/>
        <pt x="576" y="190" on="1"/>
        <pt x="604" y="125" on="0"/>
        <pt x="640" y="99" on="1"/>
        <pt x="667" y="73" on="0"/>
        <pt x="726" y="74" on="1"/>
        <pt x="726" y="1" on="1"/>
        <pt x="645" y="2" on="0"/>
        <pt x="553" y="56" on="0"/>
        <pt x="527" y="118" on="1"/>
        <pt x="448" y="-10" on="0"/>
        <pt x="287" y="-10" on="1"/>
        <pt x="171" y="-10" on="0"/>
        <pt x="102" y="54" on="1"/>
        <pt x="40" y="116" on="0"/>
        <pt x="40" y="200" on="1"/>
        <pt x="40" y="244" on="0"/>
        <pt x="79" y="324" on="0"/>
        <pt x="117" y="351" on="1"/>
        <pt x="152" y="377" on="0"/>
        <pt x="213" y="396" on="1"/>
        <pt x="126" y="439" on="0"/>
        <pt x="126" y="523" on="1"/>
        <pt x="126" y="600" on="0"/>
        <pt x="187" y="649" on="1"/>
        <pt x="242" y="694" on="0"/>
        <pt x="331" y="694" on="1"/>
        <pt x="435" y="694" on="0"/>
        <pt x="493" y="634" on="1"/>
        <pt x="538" y="587" on="0"/>
        <pt x="538" y="521" on="1"/>
        <pt x="538" y="472" on="0"/>
        <pt x="483" y="400" on="0"/>
        <pt x="431" y="380" on="1"/>
        <pt x="512" y="343" on="0"/>
        <pt x="542" y="258" on="1"/>
        <pt x="614" y="427" on="0"/>
      </contour>
      <contour>
        <pt x="328" y="632" on="1"/>
        <pt x="276" y="632" on="0"/>
        <pt x="242" y="608" on="1"/>
        <pt x="201" y="579" on="0"/>
        <pt x="201" y="524" on="1"/>
        <pt x="201" y="477" on="0"/>
        <pt x="238" y="448" on="1"/>
        <pt x="279" y="416" on="0"/>
        <pt x="339" y="416" on="1"/>
        <pt x="395" y="416" on="0"/>
        <pt x="430" y="447" on="1"/>
        <pt x="463" y="475" on="0"/>
        <pt x="463" y="518" on="1"/>
        <pt x="463" y="563" on="0"/>
        <pt x="432" y="594" on="1"/>
        <pt x="394" y="632" on="0"/>
      </contour>
      <contour>
        <pt x="296" y="350" on="1"/>
        <pt x="217" y="350" on="0"/>
        <pt x="162" y="305" on="1"/>
        <pt x="117" y="266" on="0"/>
        <pt x="117" y="206" on="1"/>
        <pt x="117" y="147" on="0"/>
        <pt x="155" y="109" on="1"/>
        <pt x="207" y="57" on="0"/>
        <pt x="292" y="57" on="1"/>
        <pt x="373" y="57" on="0"/>
        <pt x="434" y="111" on="1"/>
        <pt x="482" y="153" on="0"/>
        <pt x="482" y="192" on="1"/>
        <pt x="482" y="216" on="0"/>
        <pt x="451" y="279" on="0"/>
        <pt x="427" y="302" on="1"/>
        <pt x="377" y="349" on="0"/>
      </contour>
    </TTGlyph>
    <TTGlyph name="asciicircum" xMin="40" yMin="384" xMax="479" yMax="680">
      <contour>
        <pt x="114" y="384" on="1"/>
        <pt x="40" y="384" on="1"/>
        <pt x="215" y="680" on="1"/>
        <pt x="303" y="680" on="1"/>
        <pt x="479" y="384" on="1"/>
        <pt x="403" y="384" on="1"/>
        <pt x="259" y="627" on="1"/>
      </contour>
    </TTGlyph>
    <TTGlyph name="asciitilde" xMin="40" yMin="267" xMax="530" yMax="417">
      <contour>
        <pt x="82" y="267" on="1"/>
        <pt x="40" y="300" on="1"/>
        <pt x="69" y="359" on="0"/>
        <pt x="135" y="414" on="0"/>
        <pt x="178" y="414" on="1"/>
        <pt x="217" y="414" on="0"/>
        <pt x="295" y="375" on="1"/>
        <pt x="339" y="353" on="0"/>
        <pt x="376" y="340" on="0"/>
        <pt x="395" y="340" on="1"/>
        <pt x="445" y="340" on="0"/>
        <pt x="489" y="417" on="1"/>
        <pt x="530" y="384" on="1"/>
        <pt x="509" y="341" on="0"/>
        <pt x="489" y="317" on="1"/>
        <pt x="448" y="269" on="0"/>
        <pt x="393" y="269" on="1"/>
        <pt x="372" y="269" on="0"/>
        <pt x="325" y="286" on="0"/>
        <pt x="275" y="310" on="1"/>
        <pt x="206" y="344" on="0"/>
        <pt x="175" y="344" on="1"/>
        <pt x="148" y="344" on="0"/>
        <pt x="106" y="309" on="0"/>
      </contour>
    </TTGlyph>
    <TTGlyph name="asterisk" xMin="40" yMin="470" xMax="332" yMax="748">
      <contour>
        <pt x="221" y="748" on="1"/>
        <pt x="212" y="690" on="0"/>
        <pt x="209" y="638" on="1"/>
        <pt x="258" y="655" on="0"/>
        <pt x="312" y="679" on="1"/>
        <pt x="332" y="618" on="1"/>
        <pt x="275" y="609" on="0"/>
        <pt x="224" y="594" on="1"/>
        <pt x="252" y="556" on="0"/>
        <pt x="290" y="507" on="1"/>
        <pt x="238" y="470" on="1"/>
        <pt x="225" y="508" on="0"/>
        <pt x="186" y="565" on="1"/>
        <pt x="148" y="506" on="0"/>
        <pt x="133" y="470" on="1"/>
        <pt x="77" y="508" on="1"/>
        <pt x="97" y="534" on="0"/>
        <pt x="145" y="594" on="1"/>
        <pt x="93" y="609" on="0"/>
        <pt x="40" y="619" on="1"/>
        <pt x="58" y="679" on="1"/>
        <pt x="114" y="654" on="0"/>
        <pt x="160" y="638" on="1"/>
        <pt x="160" y="691" on="0"/>
        <pt x="152" y="748" on="1"/>
      </contour>
    </TTGlyph>
    <TTGlyph name="at" xMin="40" yMin="-10" xMax="794" yMax="694">
      <contour>
        <pt x="633" y="483" on="1"/>
        <pt x="575" y="255" on="1"/>
        <pt x="574" y="250" on="0"/>
        <pt x="574" y="244" on="1"/>
        <pt x="574" y="222" on="0"/>
        <pt x="606" y="222" on="1"/>
        <pt x="636" y="222" on="0"/>
        <pt x="673" y="247" on="1"/>
        <pt x="697" y="262" on="0"/>
        <pt x="725" y="336" on="0"/>
        <pt x="725" y="382" on="1"/>
        <pt x="725" y="480" on="0"/>
        <pt x="655" y="549" on="1"/>
        <pt x="608" y="594" on="0"/>
        <pt x="546" y="618" on="1"/>
        <pt x="489" y="639" on="0"/>
        <pt x="431" y="639" on="1"/>
        <pt x="346" y="639" on="0"/>
        <pt x="265" y="594" on="1"/>
        <pt x="181" y="546" on="0"/>
        <pt x="139" y="471" on="1"/>
        <pt x="107" y="411" on="0"/>
        <pt x="107" y="338" on="1"/>
        <pt x="107" y="212" on="0"/>
        <pt x="192" y="128" on="1"/>
        <pt x="236" y="84" on="0"/>
        <pt x="349" y="43" on="0"/>
        <pt x="423" y="43" on="1"/>
        <pt x="465" y="43" on="0"/>
        <pt x="559" y="62" on="0"/>
        <pt x="618" y="86" on="1"/>
        <pt x="636" y="27" on="1"/>
        <pt x="600" y="16" on="0"/>
        <pt x="542" y="3" on="1"/>
        <pt x="486" y="-10" on="0"/>
        <pt x="412" y="-10" on="1"/>
        <pt x="256" y="-10" on="0"/>
        <pt x="158" y="72" on="1"/>
        <pt x="97" y="125" on="0"/>
        <pt x="64" y="207" on="1"/>
        <pt x="40" y="273" on="0"/>
        <pt x="40" y="340" on="1"/>
        <pt x="40" y="443" on="0"/>
        <pt x="96" y="529" on="1"/>
        <pt x="159" y="621" on="0"/>
        <pt x="274" y="664" on="1"/>
        <pt x="354" y="694" on="0"/>
        <pt x="438" y="694" on="1"/>
        <pt x="593" y="694" on="0"/>
        <pt x="698" y="604" on="1"/>
        <pt x="794" y="521" on="0"/>
        <pt x="794" y="390" on="1"/>
        <pt x="794" y="273" on="0"/>
        <pt x="724" y="217" on="1"/>
        <pt x="682" y="183" on="0"/>
        <pt x="629" y="183" on="1"/>
        <pt x="590" y="183" on="0"/>
        <pt x="547" y="206" on="0"/>
        <pt x="525" y="239" on="1"/>
        <pt x="493" y="214" on="0"/>
        <pt x="401" y="185" on="0"/>
        <pt x="353" y="185" on="1"/>
        <pt x="291" y="185" on="0"/>
        <pt x="253" y="215" on="1"/>
        <pt x="211" y="249" on="0"/>
        <pt x="211" y="307" on="1"/>
        <pt x="211" y="371" on="0"/>
        <pt x="258" y="423" on="1"/>
        <pt x="289" y="457" on="0"/>
        <pt x="382" y="496" on="0"/>
        <pt x="432" y="496" on="1"/>
        <pt x="502" y="496" on="0"/>
        <pt x="554" y="447" on="1"/>
        <pt x="564" y="483" on="1"/>
      </contour>
      <contour>
        <pt x="424" y="445" on="1"/>
        <pt x="371" y="445" on="0"/>
        <pt x="331" y="414" on="1"/>
        <pt x="282" y="377" on="0"/>
        <pt x="280" y="320" on="1"/>
        <pt x="279" y="282" on="0"/>
        <pt x="330" y="236" on="0"/>
        <pt x="372" y="236" on="1"/>
        <pt x="440" y="236" on="0"/>
        <pt x="484" y="271" on="1"/>
        <pt x="529" y="306" on="0"/>
        <pt x="529" y="351" on="1"/>
        <pt x="529" y="396" on="0"/>
        <pt x="475" y="445" on="0"/>
      </contour>
    </TTGlyph>
    <TTGlyph name="b" xMin="40" yMin="0" xMax="567" yMax="560">
      <contour>
        <pt x="468" y="293" on="1"/>
        <pt x="567" y="253" on="0"/>
        <pt x="567" y="156" on="1"/>
        <pt x="567" y="85" on="0"/>
        <pt x="517" y="42" on="1"/>
        <pt x="489" y="19" on="0"/>
        <pt x="416" y="0" on="0"/>
        <pt x="355" y="0" on="1"/>
        <pt x="40" y="0" on="1"/>
        <pt x="40" y="560" on="1"/>
        <pt x="344" y="560" on="1"/>
        <pt x="397" y="560" on="0"/>
        <pt x="462" y="546" on="0"/>
        <pt x="486" y="530" on="1"/>
        <pt x="515" y="512" on="0"/>
        <pt x="548" y="447" on="0"/>
        <pt x="548" y="410" on="1"/>
        <pt x="548" y="333" on="0"/>
      </contour>
      <contour>
        <pt x="112" y="320" on="1"/>
        <pt x="324" y="320" on="1"/>
        <pt x="374" y="320" on="0"/>
        <pt x="422" y="327" on="0"/>
        <pt x="441" y="338" on="1"/>
        <pt x="479" y="360" on="0"/>
        <pt x="479" y="408" on="1"/>
        <pt x="479" y="461" on="0"/>
        <pt x="435" y="487" on="1"/>
        <pt x="415" y="498" on="0"/>
        <pt x="367" y="505" on="0"/>
        <pt x="318" y="505" on="1"/>
        <pt x="112" y="505" on="1"/>
      </contour>
      <contour>
        <pt x="112" y="55" on="1"/>
        <pt x="335" y="55" on="1"/>
        <pt x="388" y="55" on="0"/>
        <pt x="438" y="63" on="0"/>
        <pt x="458" y="76" on="1"/>
        <pt x="498" y="101" on="0"/>
        <pt x="498" y="155" on="1"/>
        <pt x="498" y="215" on="0"/>
        <pt x="451" y="244" on="1"/>
        <pt x="431" y="256" on="0"/>
        <pt x="380" y="265" on="0"/>
        <pt x="328" y="265" on="1"/>
        <pt x="112" y="265" on="1"/>
      </contour>
    </TTGlyph>
    <TTGlyph name="backslash" xMin="40" yMin="0" xMax="621" yMax="680">
      <contour>
        <pt x="115" y="680" on="1"/>
        <pt x="621" y="0" on="1"/>
        <pt x="542" y="0" on="1"/>
        <pt x="40" y="680" on="1"/>
      </contour>
    </TTGlyph>
    <TTGlyph name="bar" xMin="217" yMin="-82" xMax="296" yMax="680">
      <contour>
        <pt x="217" y="680" on="1"/>
        <pt x="296" y="680" on="1"/>
        <pt x="296" y="-82" on="1"/>
        <pt x="217" y="-82" on="1"/>
      </contour>
    </TTGlyph>
    <TTGlyph name="braceleft" xMin="40" yMin="-82" xMax="365" yMax="765">
      <contour>
        <pt x="40" y="375" on="1"/>
        <pt x="110" y="375" on="1"/>
        <pt x="129" y="375" on="0"/>
        <pt x="140" y="405" on="0"/>
        <pt x="141" y="461" on="1"/>
        <pt x="141" y="688" on="1"/>
        <pt x="141" y="717" on="0"/>
        <pt x="197" y="765" on="0"/>
        <pt x="231" y="765" on="1"/>
        <pt x="365" y="765" on="1"/>
        <pt x="365" y="710" on="1"/>
        <pt x="267" y="710" on="1"/>
        <pt x="239" y="710" on="0"/>
        <pt x="223" y="684" on="1"/>
        <pt x="216" y="674" on="0"/>
        <pt x="213" y="635" on="0"/>
        <pt x="213" y="567" on="1"/>
        <pt x="213" y="414" on="1"/>
        <pt x="213" y="391" on="0"/>
        <pt x="196" y="362" on="0"/>
        <pt x="172" y="343" on="1"/>
        <pt x="196" y="323" on="0"/>
        <pt x="213" y="293" on="0"/>
        <pt x="213" y="271" on="1"/>
        <pt x="213" y="45" on="1"/>
        <pt x="212" y="-21" on="0"/>
        <pt x="267" y="-27" on="1"/>
        <pt x="365" y="-27" on="1"/>
        <pt x="365" y="-82" on="1"/>
        <pt x="231" y="-82" on="1"/>
        <pt x="201" y="-82" on="0"/>
        <pt x="173" y="-61" on="1"/>
        <pt x="141" y="-36" on="0"/>
        <pt x="141" y="-4" on="1"/>
        <pt x="141" y="224" on="1"/>
        <pt x="140" y="280" on="0"/>
        <pt x="129" y="310" on="0"/>
        <pt x="110" y="310" on="1"/>
        <pt x="40" y="310" on="1"/>
      </contour>
    </TTGlyph>
    <TTGlyph name="braceright" xMin="40" yMin="-82" xMax="365" yMax="765">
      <contour>
        <pt x="365" y="375" on="1"/>
        <pt x="365" y="310" on="1"/>
        <pt x="295" y="310" on="1"/>
        <pt x="276" y="310" on="0"/>
        <pt x="265" y="280" on="0"/>
        <pt x="264" y="224" on="1"/>
        <pt x="264" y="-4" on="1"/>
        <pt x="264" y="-36" on="0"/>
        <pt x="232" y="-61" on="1"/>
        <pt x="204" y="-82" on="0"/>
        <pt x="174" y="-82" on="1"/>
        <pt x="40" y="-82" on="1"/>
        <pt x="40" y="-27" on="1"/>
        <pt x="138" y="-27" on="1"/>
        <pt x="193" y="-21" on="0"/>
        <pt x="192" y="45" on="1"/>
        <pt x="192" y="271" on="1"/>
        <pt x="192" y="293" on="0"/>
        <pt x="209" y="323" on="0"/>
        <pt x="233" y="343" on="1"/>
        <pt x="209" y="362" on="0"/>
        <pt x="192" y="391" on="0"/>
        <pt x="192" y="414" on="1"/>
        <pt x="192" y="567" on="1"/>
        <pt x="192" y="635" on="0"/>
        <pt x="189" y="674" on="0"/>
        <pt x="182" y="684" on="1"/>
        <pt x="166" y="710" on="0"/>
        <pt x="138" y="710" on="1"/>
        <pt x="40" y="710" on="1"/>
        <pt x="40" y="765" on="1"/>
        <pt x="174" y="765" on="1"/>
        <pt x="208" y="765" on="0"/>
        <pt x="264" y="717" on="0"/>
        <pt x="264" y="688" on="1"/>
        <pt x="264" y="461" on="1"/>
        <pt x="265" y="405" on="0"/>
        <pt x="276" y="375" on="0"/>
        <pt x="295" y="375" on="1"/>
      </contour>
    </TTGlyph>
    <TTGlyph name="bracketleft" xMin="40" yMin="-82" xMax="264" yMax="765">
      <contour>
        <pt x="112" y="710" on="1"/>
        <pt x="112" y="-27" on="1"/>
        <pt x="264" y="-27" on="1"/>
        <pt x="264" y="-82" on="1"/>
        <pt x="40" y="-82" on="1"/>
        <pt x="40" y="765" on="1"/>
        <pt x="264" y="765" on="1"/>
        <pt x="264" y="710" on="1"/>
      </contour>
    </TTGlyph>
    <TTGlyph name="bracketright" xMin="40" yMin="-82" xMax="264" yMax="765">
      <contour>
        <pt x="192" y="710" on="1"/>
        <pt x="40" y="710" on="1"/>
        <pt x="40" y="765" on="1"/>
        <pt x="264" y="765" on="1"/>
        <pt x="264" y="-82" on="1"/>
        <pt x="40" y="-82" on="1"/>
        <pt x="40" y="-27" on="1"/>
        <pt x="192" y="-27" on="1"/>
      </contour>
    </TTGlyph>
    <TTGlyph name="c" xMin="40" yMin="-10" xMax="650" yMax="573">
      <contour>
        <pt x="603" y="439" on="1"/>
        <pt x="494" y="516" on="0"/>
        <pt x="371" y="514" on="1"/>
        <pt x="266" y="514" on="0"/>
        <pt x="194" y="456" on="1"/>
        <pt x="114" y="390" on="0"/>
        <pt x="114" y="284" on="1"/>
        <pt x="114" y="170" on="0"/>
        <pt x="203" y="102" on="1"/>
        <pt x="272" y="47" on="0"/>
        <pt x="368" y="47" on="1"/>
        <pt x="502" y="47" on="0"/>
        <pt x="610" y="157" on="1"/>
        <pt x="650" y="104" on="1"/>
        <pt x="561" y="32" on="0"/>
        <pt x="437" y="-10" on="0"/>
        <pt x="361" y="-10" on="1"/>
        <pt x="228" y="-10" on="0"/>
        <pt x="142" y="61" on="1"/>
        <pt x="98" y="97" on="0"/>
        <pt x="72" y="147" on="1"/>
        <pt x="40" y="210" on="0"/>
        <pt x="40" y="281" on="1"/>
        <pt x="40" y="419" on="0"/>
        <pt x="147" y="503" on="1"/>
        <pt x="236" y="572" on="0"/>
        <pt x="371" y="572" on="1"/>
        <pt x="503" y="573" on="0"/>
        <pt x="636" y="495" on="1"/>
      </contour>
    </TTGlyph>
    <TTGlyph name="colon" xMin="40" yMin="-12" xMax="149" yMax="575">
      <contour>
        <pt x="95" y="97" on="1"/>
        <pt x="118" y="97" on="0"/>
        <pt x="149" y="65" on="0"/>
        <pt x="149" y="42" on="1"/>
        <pt x="149" y="20" on="0"/>
        <pt x="117" y="-12" on="0"/>
        <pt x="95" y="-12" on="1"/>
        <pt x="72" y="-12" on="0"/>
        <pt x="40" y="21" on="0"/>
        <pt x="40" y="43" on="1"/>
        <pt x="40" y="65" on="0"/>
        <pt x="72" y="97" on="0"/>
      </contour>
      <contour>
        <pt x="95" y="575" on="1"/>
        <pt x="118" y="575" on="0"/>
        <pt x="149" y="543" on="0"/>
        <pt x="149" y="520" on="1"/>
        <pt x="149" y="498" on="0"/>
        <pt x="117" y="466" on="0"/>
        <pt x="95" y="466" on="1"/>
        <pt x="72" y="466" on="0"/>
        <pt x="40" y="499" on="0"/>
        <pt x="40" y="521" on="1"/>
        <pt x="40" y="543" on="0"/>
        <pt x="72" y="575" on="0"/>
      </contour>
    </TTGlyph>
    <TTGlyph name="comma" xMin="89" yMin="-116" xMax="198" yMax="97">
      <contour>
        <pt x="108" y="-116" on="1"/>
        <pt x="93" y="-98" on="1"/>
        <pt x="126" y="-78" on="0"/>
        <pt x="156" y="-38" on="0"/>
        <pt x="161" y="-9" on="1"/>
        <pt x="148" y="-12" on="0"/>
        <pt x="140" y="-12" on="1"/>
        <pt x="117" y="-12" on="0"/>
        <pt x="89" y="17" on="0"/>
        <pt x="89" y="41" on="1"/>
        <pt x="89" y="66" on="0"/>
        <pt x="118" y="97" on="0"/>
        <pt x="141" y="97" on="1"/>
        <pt x="167" y="97" on="0"/>
        <pt x="198" y="54" on="0"/>
        <pt x="198" y="18" on="1"/>
        <pt x="198" y="-26" on="0"/>
        <pt x="156" y="-89" on="0"/>
      </contour>
    </TTGlyph>
    <TTGlyph name="d" xMin="40" yMin="0" xMax="602" yMax="560">
      <contour>
        <pt x="40" y="0" on="1"/>
        <pt x="40" y="560" on="1"/>
        <pt x="291" y="560" on="1"/>
        <pt x="405" y="560" on="0"/>
        <pt x="460" y="534" on="1"/>
        <pt x="529" y="500" on="0"/>
        <pt x="568" y="423" on="1"/>
        <pt x="602" y="356" on="0"/>
        <pt x="602" y="280" on="1"/>
        <pt x="602" y="192" on="0"/>
        <pt x="557" y="118" on="1"/>
        <pt x="518" y="53" on="0"/>
        <pt x="399" y="0" on="0"/>
        <pt x="291" y="0" on="1"/>
      </contour>
      <contour>
        <pt x="112" y="55" on="1"/>
        <pt x="287" y="55" on="1"/>
        <pt x="387" y="55" on="0"/>
        <pt x="433" y="82" on="1"/>
        <pt x="484" y="111" on="0"/>
        <pt x="509" y="175" on="1"/>
        <pt x="527" y="223" on="0"/>
        <pt x="527" y="280" on="1"/>
        <pt x="527" y="382" on="0"/>
        <pt x="475" y="444" on="1"/>
        <pt x="446" y="477" on="0"/>
        <pt x="360" y="505" on="0"/>
        <pt x="287" y="505" on="1"/>
        <pt x="112" y="505" on="1"/>
      </contour>
    </TTGlyph>
    <TTGlyph name="dollar" xMin="40" yMin="-82" xMax="636" yMax="765">
      <contour>
        <pt x="363" y="611" on="1"/>
        <pt x="363" y="382" on="1"/>
        <pt x="399" y="378" on="1"/>
        <pt x="473" y="369" on="0"/>
        <pt x="535" y="355" on="0"/>
        <pt x="559" y="342" on="1"/>
        <pt x="636" y="303" on="0"/>
        <pt x="636" y="205" on="1"/>
        <pt x="636" y="114" on="0"/>
        <pt x="488" y="3" on="0"/>
        <pt x="363" y="2" on="1"/>
        <pt x="363" y="-82" on="1"/>
        <pt x="305" y="-82" on="1"/>
        <pt x="305" y="3" on="1"/>
        <pt x="204" y="9" on="0"/>
        <pt x="111" y="55" on="1"/>
        <pt x="65" y="78" on="0"/>
        <pt x="40" y="93" on="1"/>
        <pt x="73" y="158" on="1"/>
        <pt x="95" y="138" on="0"/>
        <pt x="179" y="103" on="1"/>
        <pt x="242" y="74" on="0"/>
        <pt x="305" y="68" on="1"/>
        <pt x="305" y="313" on="1"/>
        <pt x="207" y="325" on="0"/>
        <pt x="161" y="341" on="1"/>
        <pt x="107" y="361" on="0"/>
        <pt x="82" y="400" on="1"/>
        <pt x="57" y="437" on="0"/>
        <pt x="57" y="482" on="1"/>
        <pt x="57" y="564" on="0"/>
        <pt x="189" y="667" on="0"/>
        <pt x="305" y="677" on="1"/>
        <pt x="305" y="765" on="1"/>
        <pt x="363" y="765" on="1"/>
        <pt x="363" y="678" on="1"/>
        <pt x="469" y="678" on="0"/>
        <pt x="608" y="616" on="1"/>
        <pt x="575" y="553" on="1"/>
        <pt x="456" y="606" on="0"/>
      </contour>
      <contour>
        <pt x="305" y="611" on="1"/>
        <pt x="251" y="607" on="0"/>
        <pt x="215" y="589" on="1"/>
        <pt x="134" y="552" on="0"/>
        <pt x="134" y="488" on="1"/>
        <pt x="134" y="423" on="0"/>
        <pt x="217" y="402" on="1"/>
        <pt x="233" y="397" on="0"/>
        <pt x="305" y="389" on="1"/>
      </contour>
      <contour>
        <pt x="363" y="66" on="1"/>
        <pt x="448" y="70" on="0"/>
        <pt x="494" y="98" on="1"/>
        <pt x="558" y="138" on="0"/>
        <pt x="558" y="201" on="1"/>
        <pt x="558" y="263" on="0"/>
        <pt x="492" y="286" on="1"/>
        <pt x="469" y="294" on="0"/>
        <pt x="363" y="306" on="1"/>
      </contour>
    </TTGlyph>
    <TTGlyph name="e" xMin="40" yMin="0" xMax="515" yMax="560">
      <contour>
        <pt x="112" y="262" on="1"/>
        <pt x="112" y="55" on="1"/>
        <pt x="515" y="55" on="1"/>
        <pt x="515" y="0" on="1"/>
        <pt x="40" y="0" on="1"/>
        <pt x="40" y="560" on="1"/>
        <pt x="511" y="560" on="1"/>
        <pt x="511" y="505" on="1"/>
        <pt x="112" y="505" on="1"/>
        <pt x="112" y="317" on="1"/>
        <pt x="388" y="317" on="1"/>
        <pt x="388" y="262" on="1"/>
      </contour>
    </TTGlyph>
    <TTGlyph name="eight" xMin="40" yMin="-10" xMax="667" yMax="694">
      <contour>
        <pt x="176" y="363" on="1"/>
        <pt x="130" y="379" on="0"/>
        <pt x="105" y="403" on="1"/>
        <pt x="59" y="446" on="0"/>
        <pt x="59" y="509" on="1"/>
        <pt x="59" y="568" on="0"/>
        <pt x="101" y="613" on="1"/>
        <pt x="175" y="694" on="0"/>
        <pt x="352" y="694" on="1"/>
        <pt x="482" y="694" on="0"/>
        <pt x="561" y="647" on="1"/>
        <pt x="602" y="623" on="0"/>
        <pt x="625" y="584" on="1"/>
        <pt x="645" y="550" on="0"/>
        <pt x="645" y="509" on="1"/>
        <pt x="645" y="457" on="0"/>
        <pt x="586" y="383" on="0"/>
        <pt x="528" y="363" on="1"/>
        <pt x="572" y="349" on="0"/>
        <pt x="600" y="328" on="1"/>
        <pt x="667" y="276" on="0"/>
        <pt x="667" y="197" on="1"/>
        <pt x="667" y="144" on="0"/>
        <pt x="633" y="95" on="1"/>
        <pt x="561" y="-10" on="0"/>
        <pt x="352" y="-10" on="1"/>
        <pt x="194" y="-10" on="0"/>
        <pt x="110" y="54" on="1"/>
        <pt x="77" y="80" on="0"/>
        <pt x="40" y="157" on="0"/>
        <pt x="40" y="197" on="1"/>
        <pt x="40" y="255" on="0"/>
        <pt x="110" y="341" on="0"/>
      </contour>
      <contour>
        <pt x="351" y="624" on="1"/>
        <pt x="245" y="624" on="0"/>
        <pt x="185" y="589" on="1"/>
        <pt x="134" y="560" on="0"/>
        <pt x="134" y="508" on="1"/>
        <pt x="134" y="458" on="0"/>
        <pt x="185" y="428" on="1"/>
        <pt x="245" y="393" on="0"/>
        <pt x="352" y="393" on="1"/>
        <pt x="459" y="393" on="0"/>
        <pt x="520" y="428" on="1"/>
        <pt x="570" y="457" on="0"/>
        <pt x="570" y="507" on="1"/>
        <pt x="570" y="563" on="0"/>
        <pt x="455" y="624" on="0"/>
      </contour>
      <contour>
        <pt x="351" y="333" on="1"/>
        <pt x="236" y="333" on="0"/>
        <pt x="172" y="291" on="1"/>
        <pt x="117" y="256" on="0"/>
        <pt x="117" y="195" on="1"/>
        <pt x="117" y="135" on="0"/>
        <pt x="172" y="99" on="1"/>
        <pt x="236" y="57" on="0"/>
        <pt x="352" y="57" on="1"/>
        <pt x="468" y="57" on="0"/>
        <pt x="532" y="99" on="1"/>
        <pt x="558" y="115" on="0"/>
        <pt x="587" y="166" on="0"/>
        <pt x="587" y="193" on="1"/>
        <pt x="587" y="256" on="0"/>
        <pt x="532" y="291" on="1"/>
        <pt x="468" y="333" on="0"/>
      </contour>
    </TTGlyph>
    <TTGlyph name="equal" xMin="40" yMin="206" xMax="587" yMax="476">
      <contour>
        <pt x="40" y="476" on="1"/>
        <pt x="587" y="476" on="1"/>
        <pt x="587" y="411" on="1"/>
        <pt x="40" y="411" on="1"/>
      </contour>
      <contour>
        <pt x="40" y="271" on="1"/>
        <pt x="587" y="271" on="1"/>
        <pt x="587" y="206" on="1"/>
        <pt x="40" y="206" on="1"/>
      </contour>
    </TTGlyph>
    <TTGlyph name="exclam" xMin="118" yMin="-10" xMax="227" yMax="680">
      <contour>
        <pt x="160" y="191" on="1"/>
        <pt x="128" y="680" on="1"/>
        <pt x="219" y="680" on="1"/>
        <pt x="187" y="191" on="1"/>
      </contour>
      <contour>
        <pt x="173" y="97" on="1"/>
        <pt x="196" y="97" on="0"/>
        <pt x="227" y="65" on="0"/>
        <pt x="227" y="42" on="1"/>
        <pt x="227" y="20" on="0"/>
        <pt x="195" y="-10" on="0"/>
        <pt x="173" y="-10" on="1"/>
        <pt x="150" y="-10" on="0"/>
        <pt x="118" y="20" on="0"/>
        <pt x="118" y="43" on="1"/>
        <pt x="118" y="65" on="0"/>
        <pt x="150" y="97" on="0"/>
      </contour>
    </TTGlyph>
    <TTGlyph name="f" xMin="40" yMin="0" xMax="519" yMax="560">
      <contour>
        <pt x="112" y="262" on="1"/>
        <pt x="112" y="0" on="1"/>
        <pt x="40" y="0" on="1"/>
        <pt x="40" y="560" on="1"/>
        <pt x="519" y="560" on="1"/>
        <pt x="519" y="505" on="1"/>
        <pt x="112" y="505" on="1"/>
        <pt x="112" y="317" on="1"/>
        <pt x="396" y="317" on="1"/>
        <pt x="396" y="262" on="1"/>
      </contour>
    </TTGlyph>
    <TTGlyph name="five" xMin="40" yMin="-10" xMax="640" yMax="680">
      <contour>
        <pt x="146" y="615" on="1"/>
        <pt x="146" y="406" on="1"/>
        <pt x="235" y="469" on="0"/>
        <pt x="356" y="469" on="1"/>
        <pt x="477" y="469" on="0"/>
        <pt x="554" y="409" on="1"/>
        <pt x="640" y="343" on="0"/>
        <pt x="640" y="236" on="1"/>
        <pt x="640" y="130" on="0"/>
        <pt x="548" y="57" on="1"/>
        <pt x="466" y="-10" on="0"/>
        <pt x="342" y="-10" on="1"/>
        <pt x="264" y="-10" on="0"/>
        <pt x="143" y="30" on="0"/>
        <pt x="73" y="81" on="1"/>
        <pt x="62" y="89" on="0"/>
        <pt x="40" y="111" on="1"/>
        <pt x="85" y="173" on="1"/>
        <pt x="107" y="148" on="0"/>
        <pt x="150" y="117" on="1"/>
        <pt x="231" y="57" on="0"/>
        <pt x="342" y="57" on="1"/>
        <pt x="454" y="57" on="0"/>
        <pt x="515" y="123" on="1"/>
        <pt x="557" y="168" on="0"/>
        <pt x="557" y="234" on="1"/>
        <pt x="557" y="305" on="0"/>
        <pt x="507" y="351" on="1"/>
        <pt x="448" y="407" on="0"/>
        <pt x="354" y="407" on="1"/>
        <pt x="262" y="407" on="0"/>
        <pt x="198" y="365" on="1"/>
        <pt x="162" y="341" on="0"/>
        <pt x="140" y="312" on="1"/>
        <pt x="71" y="366" on="1"/>
        <pt x="71" y="680" on="1"/>
        <pt x="593" y="680" on="1"/>
        <pt x="593" y="615" on="1"/>
      </contour>
    </TTGlyph>
    <TTGlyph name="four" xMin="40" yMin="0" xMax="676" yMax="680">
      <contour>
        <pt x="550" y="207" on="1"/>
        <pt x="676" y="207" on="1"/>
        <pt x="676" y="142" on="1"/>
        <pt x="550" y="142" on="1"/>
        <pt x="550" y="0" on="1"/>
        <pt x="475" y="0" on="1"/>
        <pt x="475" y="142" on="1"/>
        <pt x="40" y="142" on="1"/>
        <pt x="40" y="193" on="1"/>
        <pt x="458" y="680" on="1"/>
        <pt x="550" y="680" on="1"/>
      </contour>
      <contour>
        <pt x="475" y="207" on="1"/>
        <pt x="475" y="605" on="1"/>
        <pt x="138" y="207" on="1"/>
      </contour>
    </TTGlyph>
    <TTGlyph name="g" xMin="40" yMin="-10" xMax="637" yMax="570">
      <contour>
        <pt x="604" y="429" on="1"/>
        <pt x="464" y="517" on="0"/>
        <pt x="367" y="512" on="1"/>
        <pt x="262" y="512" on="0"/>
        <pt x="192" y="451" on="1"/>
        <pt x="114" y="384" on="0"/>
        <pt x="114" y="278" on="1"/>
        <pt x="114" y="176" on="0"/>
        <pt x="185" y="112" on="1"/>
        <pt x="256" y="47" on="0"/>
        <pt x="370" y="47" on="1"/>
        <pt x="428" y="47" on="0"/>
        <pt x="533" y="82" on="0"/>
        <pt x="569" y="112" on="1"/>
        <pt x="569" y="215" on="1"/>
        <pt x="387" y="215" on="1"/>
        <pt x="387" y="270" on="1"/>
        <pt x="632" y="270" on="1"/>
        <pt x="632" y="79" on="1"/>
        <pt x="520" y="-9" on="0"/>
        <pt x="362" y="-10" on="1"/>
        <pt x="227" y="-10" on="0"/>
        <pt x="140" y="62" on="1"/>
        <pt x="94" y="102" on="0"/>
        <pt x="67" y="157" on="1"/>
        <pt x="40" y="216" on="0"/>
        <pt x="40" y="280" on="1"/>
        <pt x="40" y="373" on="0"/>
        <pt x="96" y="448" on="1"/>
        <pt x="147" y="515" on="0"/>
        <pt x="231" y="547" on="1"/>
        <pt x="294" y="570" on="0"/>
        <pt x="365" y="570" on="1"/>
        <pt x="427" y="570" on="0"/>
        <pt x="530" y="540" on="0"/>
        <pt x="637" y="482" on="1"/>
      </contour>
    </TTGlyph>
    <TTGlyph name="grave" xMin="40" yMin="615" xMax="181" yMax="750">
      <contour>
        <pt x="117" y="750" on="1"/>
        <pt x="181" y="615" on="1"/>
        <pt x="132" y="615" on="1"/>
        <pt x="40" y="750" on="1"/>
      </contour>
    </TTGlyph>
    <TTGlyph name="greater" xMin="40" yMin="99" xMax="475" yMax="575">
      <contour>
        <pt x="40" y="575" on="1"/>
        <pt x="475" y="369" on="1"/>
        <pt x="475" y="304" on="1"/>
        <pt x="40" y="99" on="1"/>
        <pt x="40" y="170" on="1"/>
        <pt x="393" y="337" on="1"/>
        <pt x="40" y="503" on="1"/>
      </contour>
    </TTGlyph>
    <TTGlyph name="h" xMin="40" yMin="0" xMax="553" yMax="560">
      <contour>
        <pt x="481" y="261" on="1"/>
        <pt x="112" y="261" on="1"/>
        <pt x="112" y="0" on="1"/>
        <pt x="40" y="0" on="1"/>
        <pt x="40" y="560" on="1"/>
        <pt x="112" y="560" on="1"/>
        <pt x="112" y="316" on="1"/>
        <pt x="481" y="316" on="1"/>
        <pt x="481" y="560" on="1"/>
        <pt x="553" y="560" on="1"/>
        <pt x="553" y="0" on="1"/>
        <pt x="481" y="0" on="1"/>
      </contour>
    </TTGlyph>
    <TTGlyph name="hyphen" xMin="40" yMin="248" xMax="243" yMax="313">
      <contour>
        <pt x="243" y="248" on="1"/>
        <pt x="40" y="248" on="1"/>
        <pt x="40" y="313" on="1"/>
        <pt x="243" y="313" on="1"/>
      </contour>
    </TTGlyph>
    <TTGlyph name="i" xMin="40" yMin="0" xMax="112" yMax="560">
      <contour>
        <pt x="40" y="0" on="1"/>
        <pt x="40" y="560" on="1"/>
        <pt x="112" y="560" on="1"/>
        <pt x="112" y="0" on="1"/>
      </contour>
    </TTGlyph>
    <TTGlyph name="j" xMin="16" yMin="-10" xMax="420" yMax="560">
      <contour>
        <pt x="49" y="105" on="1"/>
        <pt x="101" y="73" on="0"/>
        <pt x="187" y="47" on="0"/>
        <pt x="227" y="47" on="1"/>
        <pt x="265" y="47" on="0"/>
        <pt x="322" y="73" on="0"/>
        <pt x="335" y="97" on="1"/>
        <pt x="348" y="121" on="0"/>
        <pt x="348" y="191" on="1"/>
        <pt x="348" y="560" on="1"/>
        <pt x="420" y="560" on="1"/>
        <pt x="420" y="177" on="1"/>
        <pt x="420" y="130" on="0"/>
        <pt x="405" y="71" on="0"/>
        <pt x="387" y="49" on="1"/>
        <pt x="364" y="21" on="0"/>
        <pt x="282" y="-10" on="0"/>
        <pt x="235" y="-10" on="1"/>
        <pt x="194" y="-10" on="0"/>
        <pt x="89" y="11" on="0"/>
        <pt x="16" y="46" on="1"/>
      </contour>
    </TTGlyph>
    <TTGlyph name="k" xMin="40" yMin="0" xMax="560" yMax="560">
      <contour>
        <pt x="112" y="217" on="1"/>
        <pt x="112" y="0" on="1"/>
        <pt x="40" y="0" on="1"/>
        <pt x="40" y="560" on="1"/>
        <pt x="112" y="560" on="1"/>
        <pt x="112" y="282" on="1"/>
        <pt x="469" y="560" on="1"/>
        <pt x="557" y="560" on="1"/>
        <pt x="285" y="349" on="1"/>
        <pt x="560" y="0" on="1"/>
        <pt x="469" y="0" on="1"/>
        <pt x="232" y="307" on="1"/>
      </contour>
    </TTGlyph>
    <TTGlyph name="l" xMin="40" yMin="0" xMax="510" yMax="560">
      <contour>
        <pt x="112" y="55" on="1"/>
        <pt x="510" y="55" on="1"/>
        <pt x="510" y="0" on="1"/>
        <pt x="40" y="0" on="1"/>
        <pt x="40" y="560" on="1"/>
        <pt x="112" y="560" on="1"/>
      </contour>
    </TTGlyph>
    <TTGlyph name="less" xMin="40" yMin="99" xMax="475" yMax="575">
      <contour>
        <pt x="475" y="575" on="1"/>
        <pt x="475" y="503" on="1"/>
        <pt x="121" y="337" on="1"/>
        <pt x="475" y="170" on="1"/>
        <pt x="475" y="99" on="1"/>
        <pt x="40" y="304" on="1"/>
        <pt x="40" y="369" on="1"/>
      </contour>
    </TTGlyph>
    <TTGlyph name="m" xMin="40" yMin="0" xMax="647" yMax="560">
      <contour>
        <pt x="338" y="0" on="1"/>
        <pt x="100" y="472" on="1"/>
        <pt x="100" y="0" on="1"/>
        <pt x="40" y="0" on="1"/>
        <pt x="40" y="560" on="1"/>
        <pt x="133" y="560" on="1"/>
        <pt x="342" y="137" on="1"/>
        <pt x="554" y="560" on="1"/>
        <pt x="647" y="560" on="1"/>
        <pt x="647" y="0" on="1"/>
        <pt x="575" y="0" on="1"/>
        <pt x="575" y="472" on="1"/>
      </contour>
    </TTGlyph>
    <TTGlyph name="n" xMin="40" yMin="0" xMax="573" yMax="560">
      <contour>
        <pt x="100" y="472" on="1"/>
        <pt x="100" y="0" on="1"/>
        <pt x="40" y="0" on="1"/>
        <pt x="40" y="560" on="1"/>
        <pt x="115" y="560" on="1"/>
        <pt x="513" y="115" on="1"/>
        <pt x="513" y="560" on="1"/>
        <pt x="573" y="560" on="1"/>
        <pt x="573" y="0" on="1"/>
        <pt x="525" y="0" on="1"/>
      </contour>
    </TTGlyph>
    <TTGlyph name="nine" xMin="40" yMin="-10" xMax="639" yMax="695">
      <contour>
        <pt x="82" y="150" on="1"/>
        <pt x="101" y="134" on="0"/>
        <pt x="123" y="121" on="1"/>
        <pt x="213" y="58" on="0"/>
        <pt x="307" y="58" on="1"/>
        <pt x="405" y="58" on="0"/>
        <pt x="473" y="120" on="1"/>
        <pt x="559" y="199" on="0"/>
        <pt x="559" y="346" on="1"/>
        <pt x="559" y="357" on="0"/>
        <pt x="559" y="372" on="1"/>
        <pt x="481" y="237" on="0"/>
        <pt x="307" y="237" on="1"/>
        <pt x="192" y="237" on="0"/>
        <pt x="118" y="303" on="1"/>
        <pt x="43" y="367" on="0"/>
        <pt x="43" y="463" on="1"/>
        <pt x="43" y="535" on="0"/>
        <pt x="88" y="592" on="1"/>
        <pt x="129" y="646" on="0"/>
        <pt x="203" y="673" on="1"/>
        <pt x="260" y="695" on="0"/>
        <pt x="325" y="695" on="1"/>
        <pt x="427" y="695" on="0"/>
        <pt x="504" y="643" on="1"/>
        <pt x="577" y="594" on="0"/>
        <pt x="612" y="506" on="1"/>
        <pt x="639" y="435" on="0"/>
        <pt x="639" y="355" on="1"/>
        <pt x="639" y="258" on="0"/>
        <pt x="600" y="173" on="1"/>
        <pt x="556" y="76" on="0"/>
        <pt x="466" y="28" on="1"/>
        <pt x="395" y="-10" on="0"/>
        <pt x="307" y="-10" on="1"/>
        <pt x="251" y="-10" on="0"/>
        <pt x="146" y="16" on="0"/>
        <pt x="40" y="84" on="1"/>
      </contour>
      <contour>
        <pt x="322" y="626" on="1"/>
        <pt x="230" y="626" on="0"/>
        <pt x="169" y="570" on="1"/>
        <pt x="121" y="524" on="0"/>
        <pt x="121" y="460" on="1"/>
        <pt x="121" y="396" on="0"/>
        <pt x="173" y="353" on="1"/>
        <pt x="229" y="306" on="0"/>
        <pt x="317" y="306" on="1"/>
        <pt x="414" y="306" on="0"/>
        <pt x="478" y="358" on="1"/>
        <pt x="528" y="401" on="0"/>
        <pt x="528" y="461" on="1"/>
        <pt x="528" y="517" on="0"/>
        <pt x="488" y="559" on="1"/>
        <pt x="427" y="625" on="0"/>
      </contour>
    </TTGlyph>
    <TTGlyph name="numbersign" xMin="40" yMin="0" xMax="728" yMax="680">
      <contour>
        <pt x="182" y="172" on="1"/>
        <pt x="40" y="172" on="1"/>
        <pt x="53" y="236" on="1"/>
        <pt x="195" y="236" on="1"/>
        <pt x="236" y="444" on="1"/>
        <pt x="93" y="444" on="1"/>
        <pt x="106" y="508" on="1"/>
        <pt x="249" y="508" on="1"/>
        <pt x="280" y="680" on="1"/>
        <pt x="345" y="680" on="1"/>
        <pt x="312" y="508" on="1"/>
        <pt x="519" y="508" on="1"/>
        <pt x="553" y="680" on="1"/>
        <pt x="618" y="680" on="1"/>
        <pt x="584" y="508" on="1"/>
        <pt x="728" y="508" on="1"/>
        <pt x="715" y="444" on="1"/>
        <pt x="572" y="444" on="1"/>
        <pt x="531" y="236" on="1"/>
        <pt x="674" y="236" on="1"/>
        <pt x="662" y="172" on="1"/>
        <pt x="519" y="172" on="1"/>
        <pt x="486" y="0" on="1"/>
        <pt x="421" y="0" on="1"/>
        <pt x="454" y="172" on="1"/>
        <pt x="247" y="172" on="1"/>
        <pt x="215" y="0" on="1"/>
        <pt x="148" y="0" on="1"/>
      </contour>
      <contour>
        <pt x="260" y="236" on="1"/>
        <pt x="467" y="236" on="1"/>
        <pt x="506" y="444" on="1"/>
        <pt x="299" y="444" on="1"/>
      </contour>
    </TTGlyph>
    <TTGlyph name="o" xMin="40" yMin="-11" xMax="712" yMax="572">
      <contour>
        <pt x="375" y="572" on="1"/>
        <pt x="523" y="572" on="0"/>
        <pt x="615" y="494" on="1"/>
        <pt x="712" y="412" on="0"/>
        <pt x="712" y="276" on="1"/>
        <pt x="712" y="192" on="0"/>
        <pt x="664" y="121" on="1"/>
        <pt x="574" y="-11" on="0"/>
        <pt x="376" y="-11" on="1"/>
        <pt x="228" y="-11" on="0"/>
        <pt x="136" y="66" on="1"/>
        <pt x="40" y="149" on="0"/>
        <pt x="40" y="280" on="1"/>
        <pt x="40" y="369" on="0"/>
        <pt x="86" y="439" on="1"/>
        <pt x="137" y="514" on="0"/>
        <pt x="228" y="548" on="1"/>
        <pt x="290" y="571" on="0"/>
      </contour>
      <contour>
        <pt x="375" y="514" on="1"/>
        <pt x="253" y="514" on="0"/>
        <pt x="179" y="439" on="1"/>
        <pt x="114" y="374" on="0"/>
        <pt x="114" y="280" on="1"/>
        <pt x="114" y="186" on="0"/>
        <pt x="179" y="121" on="1"/>
        <pt x="253" y="46" on="0"/>
        <pt x="376" y="46" on="1"/>
        <pt x="498" y="46" on="0"/>
        <pt x="572" y="121" on="1"/>
        <pt x="637" y="186" on="0"/>
        <pt x="637" y="277" on="1"/>
        <pt x="637" y="376" on="0"/>
        <pt x="572" y="439" on="1"/>
        <pt x="497" y="513" on="0"/>
      </contour>
    </TTGlyph>
    <TTGlyph name="one" xMin="40" yMin="0" xMax="246" yMax="680">
      <contour>
        <pt x="172" y="581" on="1"/>
        <pt x="111" y="532" on="0"/>
        <pt x="40" y="519" on="1"/>
        <pt x="40" y="593" on="1"/>
        <pt x="80" y="605" on="0"/>
        <pt x="144" y="637" on="0"/>
        <pt x="172" y="680" on="1"/>
        <pt x="246" y="680" on="1"/>
        <pt x="246" y="0" on="1"/>
        <pt x="172" y="0" on="1"/>
      </contour>
    </TTGlyph>
    <TTGlyph name="p" xMin="40" yMin="0" xMax="535" yMax="560">
      <contour>
        <pt x="112" y="251" on="1"/>
        <pt x="112" y="0" on="1"/>
        <pt x="40" y="0" on="1"/>
        <pt x="40" y="560" on="1"/>
        <pt x="318" y="560" on="1"/>
        <pt x="380" y="560" on="0"/>
        <pt x="444" y="549" on="0"/>
        <pt x="469" y="533" on="1"/>
        <pt x="500" y="515" on="0"/>
        <pt x="535" y="447" on="0"/>
        <pt x="535" y="405" on="1"/>
        <pt x="535" y="364" on="0"/>
        <pt x="501" y="297" on="0"/>
        <pt x="469" y="278" on="1"/>
        <pt x="443" y="262" on="0"/>
        <pt x="380" y="251" on="0"/>
        <pt x="319" y="251" on="1"/>
      </contour>
      <contour>
        <pt x="112" y="306" on="1"/>
        <pt x="309" y="306" on="1"/>
        <pt x="362" y="306" on="0"/>
        <pt x="413" y="314" on="0"/>
        <pt x="431" y="326" on="1"/>
        <pt x="466" y="349" on="0"/>
        <pt x="466" y="406" on="1"/>
        <pt x="466" y="461" on="0"/>
        <pt x="431" y="485" on="1"/>
        <pt x="413" y="497" on="0"/>
        <pt x="363" y="505" on="0"/>
        <pt x="309" y="505" on="1"/>
        <pt x="112" y="505" on="1"/>
      </contour>
    </TTGlyph>
    <TTGlyph name="parenleft" xMin="40" yMin="-82" xMax="296" yMax="765">
      <contour>
        <pt x="269" y="765" on="1"/>
        <pt x="296" y="736" on="1"/>
        <pt x="241" y="691" on="0"/>
        <pt x="190" y="602" on="1"/>
        <pt x="120" y="481" on="0"/>
        <pt x="120" y="341" on="1"/>
        <pt x="120" y="194" on="0"/>
        <pt x="199" y="65" on="1"/>
        <pt x="246" y="-13" on="0"/>
        <pt x="296" y="-52" on="1"/>
        <pt x="269" y="-82" on="1"/>
        <pt x="40" y="99" on="0"/>
        <pt x="40" y="341" on="1"/>
        <pt x="40" y="584" on="0"/>
      </contour>
    </TTGlyph>
    <TTGlyph name="parenright" xMin="0" yMin="-82" xMax="256" yMax="765">
      <contour>
        <pt x="27" y="765" on="1"/>
        <pt x="256" y="584" on="0"/>
        <pt x="256" y="341" on="1"/>
        <pt x="256" y="99" on="0"/>
        <pt x="27" y="-82" on="1"/>
        <pt x="0" y="-52" on="1"/>
        <pt x="56" y="-8" on="0"/>
        <pt x="107" y="81" on="1"/>
        <pt x="176" y="202" on="0"/>
        <pt x="176" y="341" on="1"/>
        <pt x="176" y="489" on="0"/>
        <pt x="97" y="618" on="1"/>
        <pt x="50" y="696" on="0"/>
        <pt x="0" y="736" on="1"/>
      </contour>
    </TTGlyph>
    <TTGlyph name="percent" xMin="40" yMin="-6" xMax="893" yMax="689">
      <contour>
        <pt x="214" y="689" on="1"/>
        <pt x="285" y="689" on="0"/>
        <pt x="336" y="641" on="1"/>
        <pt x="393" y="590" on="0"/>
        <pt x="393" y="507" on="1"/>
        <pt x="393" y="471" on="0"/>
        <pt x="363" y="401" on="0"/>
        <pt x="336" y="378" on="1"/>
        <pt x="285" y="331" on="0"/>
        <pt x="215" y="331" on="1"/>
        <pt x="146" y="331" on="0"/>
        <pt x="97" y="378" on="1"/>
        <pt x="40" y="429" on="0"/>
        <pt x="40" y="510" on="1"/>
        <pt x="40" y="548" on="0"/>
        <pt x="70" y="618" on="0"/>
        <pt x="97" y="641" on="1"/>
        <pt x="146" y="685" on="0"/>
      </contour>
      <contour>
        <pt x="214" y="646" on="1"/>
        <pt x="163" y="646" on="0"/>
        <pt x="127" y="609" on="1"/>
        <pt x="90" y="570" on="0"/>
        <pt x="90" y="510" on="1"/>
        <pt x="90" y="450" on="0"/>
        <pt x="161" y="374" on="0"/>
        <pt x="215" y="374" on="1"/>
        <pt x="269" y="374" on="0"/>
        <pt x="304" y="410" on="1"/>
        <pt x="343" y="449" on="0"/>
        <pt x="343" y="508" on="1"/>
        <pt x="343" y="569" on="0"/>
        <pt x="272" y="645" on="0"/>
      </contour>
      <contour>
        <pt x="172" y="0" on="1"/>
        <pt x="701" y="680" on="1"/>
        <pt x="757" y="680" on="1"/>
        <pt x="235" y="0" on="1"/>
      </contour>
      <contour>
        <pt x="714" y="348" on="1"/>
        <pt x="783" y="348" on="0"/>
        <pt x="832" y="301" on="1"/>
        <pt x="893" y="250" on="0"/>
        <pt x="893" y="167" on="1"/>
        <pt x="893" y="131" on="0"/>
        <pt x="859" y="62" on="0"/>
        <pt x="832" y="38" on="1"/>
        <pt x="783" y="-6" on="0"/>
        <pt x="715" y="-6" on="1"/>
        <pt x="644" y="-6" on="0"/>
        <pt x="593" y="38" on="1"/>
        <pt x="536" y="89" on="0"/>
        <pt x="536" y="170" on="1"/>
        <pt x="536" y="208" on="0"/>
        <pt x="567" y="279" on="0"/>
        <pt x="593" y="301" on="1"/>
        <pt x="644" y="347" on="0"/>
      </contour>
      <contour>
        <pt x="714" y="306" on="1"/>
        <pt x="661" y="306" on="0"/>
        <pt x="626" y="269" on="1"/>
        <pt x="586" y="230" on="0"/>
        <pt x="586" y="170" on="1"/>
        <pt x="586" y="110" on="0"/>
        <pt x="659" y="34" on="0"/>
        <pt x="715" y="34" on="1"/>
        <pt x="767" y="34" on="0"/>
        <pt x="803" y="70" on="1"/>
        <pt x="839" y="109" on="0"/>
        <pt x="839" y="168" on="1"/>
        <pt x="839" y="229" on="0"/>
        <pt x="770" y="305" on="0"/>
      </contour>
    </TTGlyph>
    <TTGlyph name="period" xMin="40" yMin="-12" xMax="149" yMax="97">
      <contour>
        <pt x="95" y="97" on="1"/>
        <pt x="118" y="97" on="0"/>
        <pt x="149" y="65" on="0"/>
        <pt x="149" y="42" on="1"/>
        <pt x="149" y="20" on="0"/>
        <pt x="117" y="-12" on="0"/>
        <pt x="95" y="-12" on="1"/>
        <pt x="72" y="-12" on="0"/>
        <pt x="40" y="21" on="0"/>
        <pt x="40" y="43" on="1"/>
        <pt x="40" y="65" on="0"/>
        <pt x="72" y="97" on="0"/>
      </contour>
    </TTGlyph>
    <TTGlyph name="plus" xMin="40" yMin="68" xMax="583" yMax="610">
      <contour>
        <pt x="40" y="371" on="1"/>
        <pt x="279" y="371" on="1"/>
        <pt x="279" y="610" on="1"/>
        <pt x="344" y="610" on="1"/>
        <pt x="344" y="371" on="1"/>
        <pt x="583" y="371" on="1"/>
        <pt x="583" y="306" on="1"/>
        <pt x="344" y="306" on="1"/>
        <pt x="344" y="68" on="1"/>
        <pt x="279" y="68" on="1"/>
        <pt x="279" y="306" on="1"/>
        <pt x="40" y="306" on="1"/>
      </contour>
    </TTGlyph>
    <TTGlyph name="q" xMin="40" yMin="-70" xMax="716" yMax="572">
      <contour>
        <pt x="523" y="10" on="1"/>
        <pt x="454" y="-10" on="0"/>
        <pt x="374" y="-10" on="1"/>
        <pt x="227" y="-10" on="0"/>
        <pt x="135" y="62" on="1"/>
        <pt x="40" y="146" on="0"/>
        <pt x="40" y="277" on="1"/>
        <pt x="40" y="409" on="0"/>
        <pt x="135" y="491" on="1"/>
        <pt x="227" y="572" on="0"/>
        <pt x="375" y="572" on="1"/>
        <pt x="523" y="572" on="0"/>
        <pt x="615" y="491" on="1"/>
        <pt x="716" y="409" on="0"/>
        <pt x="716" y="277" on="1"/>
        <pt x="716" y="125" on="0"/>
        <pt x="582" y="38" on="1"/>
        <pt x="667" y="-24" on="1"/>
        <pt x="632" y="-70" on="1"/>
      </contour>
      <contour>
        <pt x="466" y="55" on="1"/>
        <pt x="409" y="99" on="1"/>
        <pt x="443" y="140" on="1"/>
        <pt x="525" y="81" on="1"/>
        <pt x="637" y="153" on="0"/>
        <pt x="637" y="277" on="1"/>
        <pt x="637" y="371" on="0"/>
        <pt x="572" y="437" on="1"/>
        <pt x="498" y="511" on="0"/>
        <pt x="375" y="511" on="1"/>
        <pt x="252" y="511" on="0"/>
        <pt x="178" y="437" on="1"/>
        <pt x="113" y="371" on="0"/>
        <pt x="113" y="277" on="1"/>
        <pt x="113" y="183" on="0"/>
        <pt x="178" y="118" on="1"/>
        <pt x="252" y="42" on="0"/>
        <pt x="375" y="42" on="1"/>
        <pt x="416" y="42" on="0"/>
      </contour>
    </TTGlyph>
    <TTGlyph name="question" xMin="40" yMin="-10" xMax="433" yMax="694">
      <contour>
        <pt x="207" y="196" on="1"/>
        <pt x="214" y="296" on="0"/>
        <pt x="233" y="335" on="1"/>
        <pt x="244" y="356" on="0"/>
        <pt x="264" y="383" on="0"/>
        <pt x="317" y="447" on="1"/>
        <pt x="354" y="491" on="0"/>
        <pt x="354" y="529" on="1"/>
        <pt x="354" y="566" on="0"/>
        <pt x="335" y="590" on="1"/>
        <pt x="302" y="632" on="0"/>
        <pt x="243" y="632" on="1"/>
        <pt x="184" y="632" on="0"/>
        <pt x="137" y="588" on="1"/>
        <pt x="107" y="565" on="0"/>
        <pt x="88" y="533" on="1"/>
        <pt x="40" y="588" on="1"/>
        <pt x="56" y="609" on="0"/>
        <pt x="68" y="618" on="1"/>
        <pt x="157" y="694" on="0"/>
        <pt x="254" y="694" on="1"/>
        <pt x="335" y="694" on="0"/>
        <pt x="387" y="644" on="1"/>
        <pt x="433" y="599" on="0"/>
        <pt x="433" y="534" on="1"/>
        <pt x="433" y="485" on="0"/>
        <pt x="405" y="446" on="1"/>
        <pt x="390" y="426" on="0"/>
        <pt x="337" y="372" on="1"/>
        <pt x="309" y="344" on="0"/>
        <pt x="275" y="268" on="0"/>
        <pt x="273" y="222" on="0"/>
        <pt x="273" y="196" on="1"/>
      </contour>
      <contour>
        <pt x="246" y="96" on="1"/>
        <pt x="269" y="96" on="0"/>
        <pt x="300" y="64" on="0"/>
        <pt x="300" y="41" on="1"/>
        <pt x="300" y="20" on="0"/>
        <pt x="268" y="-10" on="0"/>
        <pt x="246" y="-10" on="1"/>
        <pt x="225" y="-10" on="0"/>
        <pt x="193" y="20" on="0"/>
        <pt x="193" y="42" on="1"/>
        <pt x="193" y="64" on="0"/>
        <pt x="224" y="96" on="0"/>
      </contour>
    </TTGlyph>
    <TTGlyph name="quotedbl" xMin="40" yMin="422" xMax="397" yMax="680">
      <contour>
        <pt x="74" y="422" on="1"/>
        <pt x="40" y="680" on="1"/>
        <pt x="132" y="680" on="1"/>
        <pt x="99" y="422" on="1"/>
      </contour>
      <contour>
        <pt x="338" y="422" on="1"/>
        <pt x="305" y="680" on="1"/>
        <pt x="397" y="680" on="1"/>
        <pt x="363" y="422" on="1"/>
      </contour>
    </TTGlyph>
    <TTGlyph name="quotesingle" xMin="40" yMin="422" xMax="133" yMax="680">
      <contour>
        <pt x="74" y="422" on="1"/>
        <pt x="40" y="680" on="1"/>
        <pt x="133" y="680" on="1"/>
        <pt x="98" y="422" on="1"/>
      </contour>
    </TTGlyph>
    <TTGlyph name="r" xMin="40" yMin="0" xMax="557" yMax="560">
      <contour>
        <pt x="112" y="253" on="1"/>
        <pt x="112" y="0" on="1"/>
        <pt x="40" y="0" on="1"/>
        <pt x="40" y="560" on="1"/>
        <pt x="341" y="560" on="1"/>
        <pt x="397" y="560" on="0"/>
        <pt x="469" y="544" on="0"/>
        <pt x="495" y="525" on="1"/>
        <pt x="553" y="484" on="0"/>
        <pt x="553" y="405" on="1"/>
        <pt x="553" y="340" on="0"/>
        <pt x="472" y="266" on="0"/>
        <pt x="394" y="258" on="1"/>
        <pt x="557" y="0" on="1"/>
        <pt x="477" y="0" on="1"/>
        <pt x="315" y="253" on="1"/>
      </contour>
      <contour>
        <pt x="112" y="308" on="1"/>
        <pt x="325" y="308" on="1"/>
        <pt x="376" y="308" on="0"/>
        <pt x="428" y="315" on="0"/>
        <pt x="446" y="325" on="1"/>
        <pt x="485" y="347" on="0"/>
        <pt x="485" y="402" on="1"/>
        <pt x="485" y="454" on="0"/>
        <pt x="448" y="481" on="1"/>
        <pt x="414" y="505" on="0"/>
        <pt x="333" y="505" on="1"/>
        <pt x="112" y="505" on="1"/>
      </contour>
    </TTGlyph>
    <TTGlyph name="s" xMin="40" yMin="-10" xMax="593" yMax="572">
      <contour>
        <pt x="544" y="451" on="1"/>
        <pt x="442" y="514" on="0"/>
        <pt x="319" y="514" on="1"/>
        <pt x="240" y="514" on="0"/>
        <pt x="184" y="485" on="1"/>
        <pt x="129" y="455" on="0"/>
        <pt x="129" y="401" on="1"/>
        <pt x="129" y="377" on="0"/>
        <pt x="157" y="339" on="0"/>
        <pt x="180" y="331" on="1"/>
        <pt x="204" y="323" on="0"/>
        <pt x="259" y="318" on="0"/>
        <pt x="349" y="314" on="1"/>
        <pt x="425" y="312" on="0"/>
        <pt x="502" y="298" on="0"/>
        <pt x="530" y="282" on="1"/>
        <pt x="559" y="267" on="0"/>
        <pt x="593" y="204" on="0"/>
        <pt x="593" y="167" on="1"/>
        <pt x="593" y="90" on="0"/>
        <pt x="530" y="44" on="1"/>
        <pt x="454" y="-10" on="0"/>
        <pt x="328" y="-10" on="1"/>
        <pt x="266" y="-10" on="0"/>
        <pt x="129" y="27" on="0"/>
        <pt x="40" y="78" on="1"/>
        <pt x="71" y="130" on="1"/>
        <pt x="210" y="46" on="0"/>
        <pt x="325" y="47" on="1"/>
        <pt x="409" y="47" on="0"/>
        <pt x="465" y="76" on="1"/>
        <pt x="492" y="90" on="0"/>
        <pt x="524" y="138" on="0"/>
        <pt x="524" y="164" on="1"/>
        <pt x="524" y="188" on="0"/>
        <pt x="497" y="226" on="0"/>
        <pt x="475" y="234" on="1"/>
        <pt x="455" y="241" on="0"/>
        <pt x="404" y="247" on="0"/>
        <pt x="334" y="249" on="1"/>
        <pt x="252" y="253" on="0"/>
        <pt x="181" y="262" on="0"/>
        <pt x="150" y="274" on="1"/>
        <pt x="110" y="287" on="0"/>
        <pt x="85" y="320" on="1"/>
        <pt x="61" y="353" on="0"/>
        <pt x="61" y="399" on="1"/>
        <pt x="61" y="479" on="0"/>
        <pt x="134" y="525" on="1"/>
        <pt x="208" y="572" on="0"/>
        <pt x="323" y="572" on="1"/>
        <pt x="428" y="572" on="0"/>
        <pt x="573" y="510" on="1"/>
      </contour>
    </TTGlyph>
    <TTGlyph name="semicolon" xMin="40" yMin="-116" xMax="149" yMax="575">
      <contour>
        <pt x="59" y="-116" on="1"/>
        <pt x="44" y="-98" on="1"/>
        <pt x="77" y="-78" on="0"/>
        <pt x="107" y="-38" on="0"/>
        <pt x="112" y="-9" on="1"/>
        <pt x="98" y="-12" on="0"/>
        <pt x="91" y="-12" on="1"/>
        <pt x="68" y="-12" on="0"/>
        <pt x="40" y="17" on="0"/>
        <pt x="40" y="41" on="1"/>
        <pt x="40" y="66" on="0"/>
        <pt x="69" y="97" on="0"/>
        <pt x="92" y="97" on="1"/>
        <pt x="118" y="97" on="0"/>
        <pt x="149" y="54" on="0"/>
        <pt x="149" y="18" on="1"/>
        <pt x="149" y="-26" on="0"/>
        <pt x="107" y="-89" on="0"/>
      </contour>
      <contour>
        <pt x="95" y="575" on="1"/>
        <pt x="118" y="575" on="0"/>
        <pt x="149" y="543" on="0"/>
        <pt x="149" y="520" on="1"/>
        <pt x="149" y="498" on="0"/>
        <pt x="117" y="466" on="0"/>
        <pt x="95" y="466" on="1"/>
        <pt x="72" y="466" on="0"/>
        <pt x="40" y="499" on="0"/>
        <pt x="40" y="521" on="1"/>
        <pt x="40" y="543" on="0"/>
        <pt x="72" y="575" on="0"/>
      </contour>
    </TTGlyph>
    <TTGlyph name="seven" xMin="40" yMin="0" xMax="641" yMax="680">
      <contour>
        <pt x="556" y="611" on="1"/>
        <pt x="40" y="611" on="1"/>
        <pt x="40" y="680" on="1"/>
        <pt x="641" y="680" on="1"/>
        <pt x="641" y="618" on="1"/>
        <pt x="292" y="0" on="1"/>
        <pt x="210" y="0" on="1"/>
      </contour>
    </TTGlyph>
    <TTGlyph name="six" xMin="40" yMin="-10" xMax="636" yMax="694">
      <contour>
        <pt x="576" y="554" on="1"/>
        <pt x="455" y="635" on="0"/>
        <pt x="374" y="629" on="1"/>
        <pt x="274" y="629" on="0"/>
        <pt x="202" y="561" on="1"/>
        <pt x="116" y="480" on="0"/>
        <pt x="116" y="341" on="1"/>
        <pt x="116" y="332" on="0"/>
        <pt x="117" y="311" on="1"/>
        <pt x="211" y="450" on="0"/>
        <pt x="373" y="450" on="1"/>
        <pt x="487" y="450" on="0"/>
        <pt x="561" y="386" on="1"/>
        <pt x="636" y="323" on="0"/>
        <pt x="636" y="224" on="1"/>
        <pt x="636" y="126" on="0"/>
        <pt x="561" y="59" on="1"/>
        <pt x="482" y="-10" on="0"/>
        <pt x="357" y="-10" on="1"/>
        <pt x="211" y="-10" on="0"/>
        <pt x="124" y="85" on="1"/>
        <pt x="81" y="133" on="0"/>
        <pt x="58" y="200" on="1"/>
        <pt x="40" y="261" on="0"/>
        <pt x="40" y="326" on="1"/>
        <pt x="40" y="427" on="0"/>
        <pt x="85" y="516" on="1"/>
        <pt x="133" y="608" on="0"/>
        <pt x="219" y="655" on="1"/>
        <pt x="291" y="694" on="0"/>
        <pt x="372" y="694" on="1"/>
        <pt x="419" y="694" on="0"/>
        <pt x="488" y="676" on="0"/>
        <pt x="553" y="647" on="1"/>
        <pt x="579" y="635" on="0"/>
        <pt x="611" y="617" on="1"/>
      </contour>
      <contour>
        <pt x="358" y="381" on="1"/>
        <pt x="278" y="381" on="0"/>
        <pt x="218" y="336" on="1"/>
        <pt x="187" y="312" on="0"/>
        <pt x="151" y="249" on="0"/>
        <pt x="151" y="219" on="1"/>
        <pt x="151" y="193" on="0"/>
        <pt x="180" y="133" on="0"/>
        <pt x="204" y="110" on="1"/>
        <pt x="261" y="57" on="0"/>
        <pt x="353" y="57" on="1"/>
        <pt x="447" y="57" on="0"/>
        <pt x="509" y="111" on="1"/>
        <pt x="557" y="152" on="0"/>
        <pt x="557" y="216" on="1"/>
        <pt x="557" y="289" on="0"/>
        <pt x="503" y="335" on="1"/>
        <pt x="448" y="381" on="0"/>
      </contour>
    </TTGlyph>
    <TTGlyph name="slash" xMin="73" yMin="0" xMax="656" yMax="680">
      <contour>
        <pt x="73" y="0" on="1"/>
        <pt x="582" y="680" on="1"/>
        <pt x="656" y="680" on="1"/>
        <pt x="154" y="0" on="1"/>
      </contour>
    </TTGlyph>
    <TTGlyph name="t" xMin="40" yMin="0" xMax="593" yMax="560">
      <contour>
        <pt x="352" y="505" on="1"/>
        <pt x="352" y="0" on="1"/>
        <pt x="279" y="0" on="1"/>
        <pt x="279" y="505" on="1"/>
        <pt x="40" y="505" on="1"/>
        <pt x="40" y="560" on="1"/>
        <pt x="593" y="560" on="1"/>
        <pt x="593" y="505" on="1"/>
      </contour>
    </TTGlyph>
    <TTGlyph name="three" xMin="40" yMin="-10" xMax="643" yMax="695">
      <contour>
        <pt x="50" y="567" on="1"/>
        <pt x="73" y="586" on="0"/>
        <pt x="104" y="607" on="1"/>
        <pt x="168" y="654" on="0"/>
        <pt x="285" y="695" on="0"/>
        <pt x="353" y="695" on="1"/>
        <pt x="470" y="695" on="0"/>
        <pt x="545" y="637" on="1"/>
        <pt x="577" y="613" on="0"/>
        <pt x="613" y="544" on="0"/>
        <pt x="613" y="507" on="1"/>
        <pt x="613" y="409" on="0"/>
        <pt x="500" y="369" on="1"/>
        <pt x="555" y="355" on="0"/>
        <pt x="588" y="329" on="1"/>
        <pt x="643" y="281" on="0"/>
        <pt x="643" y="204" on="1"/>
        <pt x="643" y="110" on="0"/>
        <pt x="566" y="52" on="1"/>
        <pt x="482" y="-10" on="0"/>
        <pt x="349" y="-10" on="1"/>
        <pt x="277" y="-10" on="0"/>
        <pt x="138" y="27" on="0"/>
        <pt x="40" y="93" on="1"/>
        <pt x="79" y="161" on="1"/>
        <pt x="156" y="98" on="0"/>
        <pt x="284" y="58" on="0"/>
        <pt x="353" y="58" on="1"/>
        <pt x="459" y="58" on="0"/>
        <pt x="517" y="105" on="1"/>
        <pt x="539" y="123" on="0"/>
        <pt x="564" y="177" on="0"/>
        <pt x="564" y="204" on="1"/>
        <pt x="564" y="261" on="0"/>
        <pt x="520" y="296" on="1"/>
        <pt x="472" y="334" on="0"/>
        <pt x="372" y="334" on="1"/>
        <pt x="249" y="334" on="1"/>
        <pt x="249" y="398" on="1"/>
        <pt x="361" y="398" on="1"/>
        <pt x="412" y="398" on="0"/>
        <pt x="470" y="410" on="0"/>
        <pt x="493" y="426" on="1"/>
        <pt x="534" y="454" on="0"/>
        <pt x="534" y="503" on="1"/>
        <pt x="534" y="552" on="0"/>
        <pt x="491" y="584" on="1"/>
        <pt x="435" y="626" on="0"/>
        <pt x="346" y="626" on="1"/>
        <pt x="241" y="626" on="0"/>
        <pt x="161" y="563" on="1"/>
        <pt x="127" y="537" on="0"/>
        <pt x="99" y="511" on="1"/>
      </contour>
    </TTGlyph>
    <TTGlyph name="two" xMin="40" yMin="0" xMax="625" yMax="701">
      <contour>
        <pt x="51" y="546" on="1"/>
        <pt x="185" y="701" on="0"/>
        <pt x="350" y="694" on="1"/>
        <pt x="456" y="694" on="0"/>
        <pt x="525" y="639" on="1"/>
        <pt x="596" y="582" on="0"/>
        <pt x="596" y="494" on="1"/>
        <pt x="596" y="407" on="0"/>
        <pt x="528" y="349" on="1"/>
        <pt x="482" y="310" on="0"/>
        <pt x="374" y="257" on="1"/>
        <pt x="292" y="216" on="0"/>
        <pt x="231" y="179" on="0"/>
        <pt x="200" y="151" on="1"/>
        <pt x="158" y="111" on="0"/>
        <pt x="141" y="64" on="1"/>
        <pt x="625" y="64" on="1"/>
        <pt x="625" y="0" on="1"/>
        <pt x="41" y="0" on="1"/>
        <pt x="40" y="21" on="0"/>
        <pt x="67" y="102" on="0"/>
        <pt x="102" y="146" on="1"/>
        <pt x="141" y="195" on="0"/>
        <pt x="250" y="271" on="0"/>
        <pt x="348" y="318" on="1"/>
        <pt x="407" y="346" on="0"/>
        <pt x="462" y="380" on="0"/>
        <pt x="483" y="402" on="1"/>
        <pt x="517" y="439" on="0"/>
        <pt x="517" y="488" on="1"/>
        <pt x="517" y="543" on="0"/>
        <pt x="477" y="578" on="1"/>
        <pt x="425" y="625" on="0"/>
        <pt x="340" y="625" on="1"/>
        <pt x="244" y="625" on="0"/>
        <pt x="169" y="562" on="1"/>
        <pt x="122" y="525" on="0"/>
        <pt x="104" y="496" on="1"/>
      </contour>
    </TTGlyph>
    <TTGlyph name="u" xMin="40" yMin="-10" xMax="547" yMax="560">
      <contour>
        <pt x="112" y="560" on="1"/>
        <pt x="112" y="217" on="1"/>
        <pt x="112" y="150" on="0"/>
        <pt x="125" y="100" on="0"/>
        <pt x="147" y="83" on="1"/>
        <pt x="192" y="47" on="0"/>
        <pt x="299" y="47" on="1"/>
        <pt x="419" y="47" on="0"/>
        <pt x="462" y="91" on="1"/>
        <pt x="477" y="107" on="0"/>
        <pt x="487" y="156" on="0"/>
        <pt x="487" y="217" on="1"/>
        <pt x="487" y="560" on="1"/>
        <pt x="547" y="560" on="1"/>
        <pt x="547" y="202" on="1"/>
        <pt x="547" y="125" on="0"/>
        <pt x="534" y="94" on="1"/>
        <pt x="512" y="40" on="0"/>
        <pt x="395" y="-10" on="0"/>
        <pt x="294" y="-10" on="1"/>
        <pt x="147" y="-10" on="0"/>
        <pt x="88" y="43" on="1"/>
        <pt x="59" y="69" on="0"/>
        <pt x="40" y="134" on="0"/>
        <pt x="40" y="202" on="1"/>
        <pt x="40" y="560" on="1"/>
      </contour>
    </TTGlyph>
    <TTGlyph name="underscore" xMin="40" yMin="-126" xMax="552" yMax="-74">
      <contour>
        <pt x="40" y="-74" on="1"/>
        <pt x="552" y="-74" on="1"/>
        <pt x="552" y="-126" on="1"/>
        <pt x="40" y="-126" on="1"/>
      </contour>
    </TTGlyph>
    <TTGlyph name="v" xMin="40" yMin="0" xMax="607" yMax="560">
      <contour>
        <pt x="332" y="79" on="1"/>
        <pt x="541" y="560" on="1"/>
        <pt x="607" y="560" on="1"/>
        <pt x="361" y="0" on="1"/>
        <pt x="293" y="0" on="1"/>
        <pt x="40" y="560" on="1"/>
        <pt x="121" y="560" on="1"/>
      </contour>
    </TTGlyph>
    <TTGlyph name="w" xMin="40" yMin="0" xMax="902" yMax="560">
      <contour>
        <pt x="474" y="459" on="1"/>
        <pt x="310" y="0" on="1"/>
        <pt x="248" y="0" on="1"/>
        <pt x="40" y="560" on="1"/>
        <pt x="118" y="560" on="1"/>
        <pt x="284" y="95" on="1"/>
        <pt x="448" y="560" on="1"/>
        <pt x="508" y="560" on="1"/>
        <pt x="676" y="95" on="1"/>
        <pt x="839" y="560" on="1"/>
        <pt x="902" y="560" on="1"/>
        <pt x="703" y="0" on="1"/>
        <pt x="640" y="0" on="1"/>
      </contour>
    </TTGlyph>
    <TTGlyph name="x" xMin="40" yMin="0" xMax="581" yMax="560">
      <contour>
        <pt x="349" y="302" on="1"/>
        <pt x="581" y="0" on="1"/>
        <pt x="494" y="0" on="1"/>
        <pt x="305" y="246" on="1"/>
        <pt x="115" y="0" on="1"/>
        <pt x="40" y="0" on="1"/>
        <pt x="269" y="293" on="1"/>
        <pt x="66" y="560" on="1"/>
        <pt x="153" y="560" on="1"/>
        <pt x="313" y="349" on="1"/>
        <pt x="479" y="560" on="1"/>
        <pt x="552" y="560" on="1"/>
      </contour>
    </TTGlyph>
    <TTGlyph name="y" xMin="4" yMin="0" xMax="541" yMax="560">
      <contour>
        <pt x="317" y="248" on="1"/>
        <pt x="317" y="0" on="1"/>
        <pt x="245" y="0" on="1"/>
        <pt x="245" y="248" on="1"/>
        <pt x="4" y="560" on="1"/>
        <pt x="92" y="560" on="1"/>
        <pt x="288" y="303" on="1"/>
        <pt x="470" y="560" on="1"/>
        <pt x="541" y="560" on="1"/>
      </contour>
    </TTGlyph>
    <TTGlyph name="z" xMin="40" yMin="0" xMax="542" yMax="560">
      <contour>
        <pt x="540" y="560" on="1"/>
        <pt x="540" y="552" on="1"/>
        <pt x="161" y="55" on="1"/>
        <pt x="542" y="55" on="1"/>
        <pt x="542" y="0" on="1"/>
        <pt x="40" y="0" on="1"/>
        <pt x="40" y="11" on="1"/>
        <pt x="423" y="505" on="1"/>
        <pt x="46" y="505" on="1"/>
        <pt x="46" y="560" on="1"/>
      </contour>
    </TTGlyph>
    <TTGlyph name="zero" xMin="40" yMin="-10" xMax="685" yMax="694">
      <contour>
        <pt x="362" y="694" on="1"/>
        <pt x="488" y="694" on="0"/>
        <pt x="579" y="604" on="1"/>
        <pt x="627" y="558" on="0"/>
        <pt x="655" y="490" on="1"/>
        <pt x="685" y="418" on="0"/>
        <pt x="685" y="337" on="1"/>
        <pt x="685" y="234" on="0"/>
        <pt x="630" y="143" on="1"/>
        <pt x="581" y="61" on="0"/>
        <pt x="498" y="20" on="1"/>
        <pt x="433" y="-10" on="0"/>
        <pt x="362" y="-10" on="1"/>
        <pt x="277" y="-10" on="0"/>
        <pt x="203" y="32" on="1"/>
        <pt x="124" y="79" on="0"/>
        <pt x="80" y="167" on="1"/>
        <pt x="40" y="249" on="0"/>
        <pt x="40" y="342" on="1"/>
        <pt x="40" y="449" on="0"/>
        <pt x="93" y="539" on="1"/>
        <pt x="142" y="621" on="0"/>
        <pt x="225" y="662" on="1"/>
        <pt x="288" y="693" on="0"/>
      </contour>
      <contour>
        <pt x="362" y="625" on="1"/>
        <pt x="255" y="625" on="0"/>
        <pt x="183" y="548" on="1"/>
        <pt x="107" y="467" on="0"/>
        <pt x="107" y="342" on="1"/>
        <pt x="107" y="216" on="0"/>
        <pt x="183" y="134" on="1"/>
        <pt x="255" y="57" on="0"/>
        <pt x="362" y="57" on="1"/>
        <pt x="468" y="57" on="0"/>
        <pt x="540" y="134" on="1"/>
        <pt x="616" y="216" on="0"/>
        <pt x="616" y="338" on="1"/>
        <pt x="616" y="468" on="0"/>
        <pt x="540" y="548" on="1"/>
        <pt x="468" y="624" on="0"/>
      </contour>
    </TTGlyph>
</ttFont>
